<svg version="1.0" xmlns="http://www.w3.org/2000/svg"
 width="2000" height="1062" viewBox="0 0 6454.000000 3418.000000"
 preserveAspectRatio="xMidYMid meet">
<g transform="translate(0.000000,3418.000000) scale(0.100000,-0.100000)"
fill="#c5aa90" stroke="none">
<path d="M26685 33275 c-5 -2 -27 -6 -47 -10 -52 -8 -98 -49 -98 -85 0 -16 24
-74 52 -130 53 -101 53 -101 60 -450 3 -192 10 -354 14 -361 11 -18 14 -3213
3 -3469 -6 -124 -14 -331 -19 -460 -8 -226 -9 -238 -39 -324 -64 -186 -32
-223 219 -247 140 -14 332 -7 382 14 71 30 76 106 14 237 -65 140 -61 54 -61
1460 0 1285 0 1285 34 1382 39 112 38 143 -5 258 -28 75 -28 75 -34 975 -6
988 -2 923 -66 1033 -61 104 -125 152 -229 171 -55 10 -157 14 -180 6z"/>
<path d="M23132 32901 c-147 -18 -187 -114 -165 -393 21 -257 44 -270 202
-110 125 127 193 182 275 224 34 17 102 56 151 87 113 71 123 75 215 91 78 14
112 32 94 50 -30 30 -628 69 -772 51z"/>
<path d="M24415 32900 c-131 -10 -204 -57 -191 -125 38 -205 36 -123 37 -2010
0 -1141 -4 -1873 -10 -1980 -6 -93 -11 -271 -11 -395 0 -260 -8 -325 -55 -435
-38 -91 -42 -109 -32 -148 14 -54 49 -60 367 -65 419 -6 447 7 386 186 -14 39
-32 117 -41 174 -8 57 -25 150 -36 208 -33 172 -51 438 -47 710 3 299 -12
2382 -18 2392 -2 3 3 131 11 284 11 220 12 324 4 503 -17 356 -12 427 39 530
44 90 44 106 -1 136 -48 31 -229 47 -402 35z"/>
<path d="M25560 32900 c-231 -14 -375 -39 -367 -63 2 -7 44 -26 93 -43 203
-69 500 -275 603 -418 98 -136 164 -185 201 -151 37 34 45 82 45 280 0 348
-31 388 -315 398 -69 3 -186 1 -260 -3z"/>
<path d="M17575 31618 c-27 -5 -93 -29 -145 -53 -53 -25 -127 -52 -165 -61
-178 -41 -371 -121 -577 -240 -72 -41 -160 -90 -197 -108 -37 -19 -91 -53
-121 -77 -68 -53 -484 -462 -635 -626 -132 -143 -342 -447 -428 -619 -29 -60
-70 -140 -90 -179 -54 -105 -154 -325 -168 -370 -6 -22 -32 -80 -56 -129 -32
-64 -52 -122 -68 -200 -13 -61 -42 -158 -65 -215 -38 -92 -44 -120 -55 -243
-16 -158 -14 -150 -71 -285 -54 -128 -64 -186 -64 -389 0 -185 -12 -325 -41
-463 -11 -53 -24 -175 -29 -271 -6 -96 -18 -215 -26 -265 -14 -76 -17 -242
-24 -1070 -6 -851 -9 -992 -24 -1070 -9 -49 -21 -172 -26 -273 -5 -100 -16
-228 -24 -285 -52 -359 -58 -530 -66 -1802 -7 -960 -11 -1208 -24 -1330 -9
-82 -20 -242 -26 -355 -6 -113 -13 -212 -16 -220 -3 -8 -10 -150 -15 -315 -5
-165 -14 -329 -20 -365 -8 -46 -12 -1376 -15 -4650 -3 -3094 -8 -4608 -15
-4655 -12 -83 -31 -118 -62 -113 -30 4 -117 122 -168 228 -23 47 -56 110 -74
140 -18 30 -74 143 -126 250 -51 107 -112 227 -136 265 -23 39 -51 93 -62 122
-11 29 -41 93 -66 143 -25 50 -55 113 -65 141 -11 28 -36 75 -55 105 -19 30
-80 150 -136 267 -56 116 -109 223 -119 237 -9 14 -63 120 -120 235 -56 116
-118 236 -137 267 -19 32 -46 86 -59 120 -27 67 -168 350 -213 427 -15 25 -38
73 -51 106 -22 54 -111 233 -222 445 -24 47 -52 103 -61 125 -9 22 -51 103
-92 180 -41 77 -96 183 -121 235 -97 197 -203 409 -266 530 -36 69 -126 244
-200 390 -74 146 -149 292 -166 325 -46 88 -127 263 -152 325 -12 30 -39 85
-61 122 -23 37 -56 107 -74 155 -40 108 -135 308 -181 384 -19 31 -54 103 -78
160 -98 231 -134 309 -310 664 -101 204 -189 388 -196 410 -7 22 -64 144 -127
270 -63 127 -124 255 -135 285 -11 30 -32 74 -45 97 -13 23 -40 79 -58 124
-19 45 -53 112 -75 150 -23 37 -54 101 -70 141 -44 115 -129 297 -171 369 -36
60 -62 115 -184 389 -64 145 -250 521 -317 642 -32 58 -72 144 -89 190 -35 97
-114 273 -166 373 -71 135 -176 351 -209 429 -18 43 -51 108 -72 145 -22 36
-52 100 -67 141 -15 41 -36 90 -47 107 -11 18 -37 74 -59 125 -22 51 -57 122
-79 158 -21 37 -53 101 -69 144 -17 42 -45 103 -61 136 -16 32 -41 90 -55 127
-14 37 -57 124 -94 193 -91 166 -125 234 -162 327 -17 43 -50 114 -74 158 -24
44 -53 105 -65 135 -12 30 -72 159 -135 285 -62 127 -143 295 -179 375 -65
142 -90 192 -154 315 -17 33 -61 123 -97 200 -36 77 -92 192 -124 255 -32 63
-66 140 -76 170 -21 66 -112 262 -177 380 -25 47 -80 162 -123 255 -42 94
-128 274 -191 401 -63 128 -114 236 -114 240 0 5 -33 77 -74 159 -90 180 -189
396 -205 446 -6 20 -28 63 -48 95 -19 33 -53 97 -75 144 -22 47 -57 120 -79
162 -22 43 -46 96 -55 120 -8 23 -35 75 -60 115 -24 39 -54 98 -65 130 -22 66
-91 219 -184 408 -35 72 -96 198 -135 280 -39 83 -92 185 -117 229 -25 43 -64
125 -88 182 -81 196 -170 327 -259 379 -22 13 -102 44 -176 70 -204 70 -328
71 -640 9 -95 -19 -190 -28 -395 -39 -275 -14 -311 -18 -456 -55 -142 -36
-184 -74 -176 -158 5 -50 78 -205 137 -293 37 -53 95 -181 164 -359 21 -54 21
-65 21 -735 0 -374 -6 -936 -14 -1250 -17 -707 -17 -581 -6 -1415 10 -781 8
-1236 -5 -1560 -5 -118 -7 -298 -3 -400 21 -672 26 -1882 30 -7040 3 -5064 2
-5735 -12 -5893 -8 -99 -15 -256 -15 -350 0 -125 -6 -205 -20 -292 -11 -67
-20 -168 -20 -230 0 -60 -10 -193 -21 -295 -19 -164 -22 -277 -30 -990 -4
-443 -11 -825 -14 -850 -3 -25 -10 -86 -15 -136 -6 -51 -23 -159 -39 -240 -44
-218 -60 -399 -70 -774 -9 -335 -9 -335 -49 -455 -27 -81 -47 -166 -61 -260
-22 -154 -31 -186 -85 -291 -19 -40 -45 -112 -56 -160 -25 -108 -106 -279
-183 -384 -30 -41 -69 -102 -88 -135 -87 -159 -176 -260 -530 -603 -239 -231
-266 -253 -406 -330 -43 -23 -115 -74 -160 -111 -52 -44 -129 -94 -210 -137
-202 -106 -445 -241 -485 -269 -72 -50 -103 -169 -64 -243 31 -60 86 -76 256
-75 156 1 225 13 370 63 47 16 132 38 190 50 77 15 136 35 220 74 63 30 147
63 185 75 73 21 253 122 425 236 102 68 644 599 730 715 63 84 230 367 258
435 13 33 46 96 72 140 31 52 58 113 75 174 14 52 37 115 50 141 37 73 53 146
60 275 8 149 16 185 65 300 58 136 60 152 70 495 8 278 13 343 44 555 78 541
71 128 71 3940 0 3343 -3 3659 -34 4546 -4 130 -12 242 -17 250 -5 8 -9 129
-9 269 -1 239 -11 541 -37 1120 -6 149 -13 1117 -17 2470 -4 1224 -10 2232
-13 2240 -7 14 -15 346 -24 900 -1 113 -8 358 -14 545 -11 350 -15 2038 -4
2081 3 13 7 178 9 366 4 434 21 1072 34 1248 6 74 10 430 11 790 0 526 3 674
15 753 16 107 32 152 54 152 22 0 149 -181 169 -239 9 -28 40 -98 69 -156 28
-58 61 -129 72 -157 11 -28 40 -84 65 -124 25 -40 53 -96 62 -124 22 -66 104
-247 214 -470 98 -199 150 -311 150 -322 0 -4 53 -115 119 -248 65 -132 133
-277 151 -322 18 -46 50 -113 73 -150 22 -36 57 -107 77 -157 73 -175 139
-318 170 -366 17 -26 48 -89 70 -139 21 -50 48 -106 59 -125 12 -18 32 -62 45
-97 13 -35 60 -138 103 -229 44 -91 102 -212 129 -270 27 -58 69 -141 93 -185
24 -44 61 -126 82 -182 21 -57 85 -198 142 -315 116 -236 257 -533 257 -541 0
-3 18 -37 41 -76 22 -39 54 -104 69 -145 16 -41 42 -98 59 -128 16 -29 43 -87
59 -129 16 -41 45 -103 65 -137 20 -35 53 -101 72 -148 33 -79 143 -302 199
-404 14 -25 62 -124 106 -220 44 -96 110 -233 145 -305 36 -71 101 -208 145
-304 44 -95 96 -200 115 -232 19 -32 48 -91 66 -131 17 -40 35 -78 40 -84 4
-5 29 -62 54 -125 25 -63 66 -148 90 -189 23 -41 46 -86 50 -100 6 -24 104
-231 167 -355 17 -33 69 -134 115 -225 46 -91 95 -194 109 -229 13 -36 39 -87
56 -115 17 -28 50 -94 73 -146 103 -230 155 -341 179 -378 13 -21 63 -122 111
-223 47 -101 115 -242 150 -314 36 -71 90 -186 121 -255 31 -69 81 -172 112
-230 58 -108 158 -317 217 -450 18 -41 47 -100 65 -130 18 -30 55 -103 81
-162 27 -60 71 -156 98 -215 26 -60 63 -132 80 -162 18 -30 46 -87 61 -125 16
-39 65 -141 108 -226 131 -255 138 -268 223 -450 45 -96 91 -187 101 -202 10
-14 34 -62 54 -105 19 -43 52 -114 74 -158 22 -44 57 -119 79 -167 21 -47 53
-107 70 -132 17 -25 47 -83 67 -128 19 -46 41 -92 48 -103 7 -11 27 -56 45
-100 18 -44 55 -118 82 -165 27 -47 59 -112 73 -145 36 -91 134 -293 171 -355
18 -30 72 -138 119 -240 48 -102 100 -212 117 -245 17 -33 67 -130 111 -215
44 -85 89 -177 100 -204 10 -27 42 -90 70 -140 126 -227 166 -306 193 -375 15
-41 45 -104 65 -140 21 -37 72 -136 114 -221 148 -296 250 -495 272 -531 13
-21 66 -129 120 -240 53 -112 114 -234 135 -270 22 -36 55 -105 75 -155 36
-91 387 -798 441 -889 16 -27 105 -203 197 -390 230 -466 253 -511 304 -583
24 -34 59 -97 77 -140 57 -136 154 -333 187 -380 18 -26 74 -130 126 -232 52
-102 128 -237 170 -300 41 -63 95 -155 120 -205 25 -49 66 -121 93 -160 26
-38 64 -105 84 -148 20 -43 68 -119 106 -170 38 -51 85 -123 105 -162 21 -38
56 -99 79 -135 22 -36 62 -103 87 -150 26 -47 83 -134 128 -195 45 -60 93
-130 107 -155 51 -89 109 -175 162 -240 30 -36 105 -142 167 -237 83 -127 141
-202 221 -287 75 -79 148 -173 237 -303 130 -188 130 -188 705 -764 591 -592
628 -625 795 -719 66 -38 128 -84 195 -146 73 -68 122 -104 189 -138 49 -26
134 -81 189 -122 54 -41 139 -95 188 -121 50 -25 116 -64 149 -86 32 -22 133
-75 225 -119 91 -44 213 -103 271 -133 58 -29 123 -58 145 -65 22 -7 78 -32
125 -55 47 -23 117 -52 155 -65 39 -13 109 -43 157 -67 72 -37 108 -48 205
-65 72 -12 144 -31 186 -49 115 -51 148 -60 262 -70 89 -9 132 -19 225 -54
169 -63 177 -64 390 -79 107 -8 240 -23 295 -35 435 -89 367 -84 1065 -88 759
-5 855 0 1110 57 143 32 219 44 335 51 313 19 355 27 580 113 59 23 93 29 230
36 173 10 176 11 310 63 50 20 121 43 158 51 141 33 187 81 187 193 -1 107
-65 192 -171 226 -67 22 -119 21 -258 -3 -62 -11 -157 -20 -210 -20 -131 0
-200 -14 -291 -60 -113 -57 -165 -68 -375 -79 -140 -7 -210 -16 -265 -32 -136
-39 -482 -39 -791 0 -186 23 -288 31 -415 31 -321 1 -396 11 -528 69 -83 37
-136 54 -193 61 -43 6 -110 15 -148 20 -39 5 -111 26 -160 46 -50 20 -142 47
-205 60 -82 17 -142 37 -210 70 -52 25 -140 62 -195 81 -54 19 -117 44 -140
55 -22 12 -78 34 -124 49 -46 16 -118 49 -160 73 -42 25 -99 54 -128 65 -70
27 -271 133 -363 191 -41 26 -115 67 -165 91 -49 24 -151 84 -227 134 -75 49
-167 109 -205 133 -37 23 -106 76 -153 117 -49 42 -133 101 -200 138 -126 71
-171 109 -395 328 -83 80 -190 180 -240 221 -105 88 -321 308 -520 528 -76 85
-184 198 -238 250 -145 138 -276 295 -383 457 -51 78 -126 179 -167 225 -77
86 -126 157 -170 244 -14 28 -61 98 -104 156 -44 57 -101 143 -128 189 -26 46
-72 118 -101 159 -28 41 -73 116 -99 165 -26 50 -84 151 -128 225 -43 74 -103
176 -132 225 -29 50 -63 115 -76 145 -12 30 -44 89 -70 130 -26 41 -57 98 -68
127 -11 29 -39 88 -61 132 -22 45 -51 111 -65 148 -15 38 -43 100 -64 138 -21
39 -51 104 -65 145 -15 41 -42 109 -61 150 -19 41 -47 122 -64 180 -17 58 -42
132 -55 166 -39 95 -40 139 -12 334 14 96 30 243 36 325 5 83 14 184 20 225 5
46 9 2254 10 5700 0 5489 3 6099 31 6365 6 55 15 201 20 325 14 365 28 634 34
655 19 71 28 356 35 1090 7 879 15 1016 75 1420 45 303 58 477 65 925 8 489
20 616 81 865 25 101 31 152 39 320 9 216 13 233 71 374 41 98 52 149 69 319
8 85 18 122 54 210 28 67 51 144 61 203 12 68 29 123 65 199 26 58 60 145 75
194 15 49 62 157 104 240 272 527 250 490 414 692 183 225 316 354 619 600 70
58 249 159 360 204 51 21 122 52 158 69 36 17 110 40 165 51 61 13 137 37 195
64 52 24 104 47 115 51 32 13 715 23 1036 16 l296 -6 289 -145 c289 -145 289
-145 516 -363 344 -329 474 -480 569 -657 99 -183 106 -200 123 -288 27 -147
66 -187 181 -187 68 0 79 3 186 57 63 31 202 99 309 151 153 74 205 105 242
142 110 108 84 213 -69 280 -86 38 -141 84 -279 233 -221 237 -497 515 -559
563 -223 170 -715 433 -879 471 -50 11 -136 40 -191 63 -76 33 -126 47 -210
60 -138 20 -168 28 -267 71 -142 63 -151 64 -793 63 -319 -1 -602 -5 -630 -11z"/>
<path d="M28070 31479 c-88 -15 -145 -48 -145 -84 0 -28 5 -31 158 -97 233
-98 305 -164 346 -315 11 -44 21 -85 21 -91 0 -6 21 -76 46 -154 58 -180 63
-260 68 -1248 5 -849 -4 -1011 -70 -1229 -40 -132 -84 -336 -84 -391 0 -112
103 -145 415 -131 260 11 281 23 273 155 -5 69 -18 113 -112 366 -31 85 -31
85 -36 1355 -5 1270 -5 1270 -28 1335 -93 258 -300 468 -518 525 -64 17 -242
19 -334 4z"/>
<path d="M31647 31308 c37 -46 93 -111 124 -145 73 -79 210 -354 239 -480 11
-45 36 -131 55 -190 55 -168 63 -230 41 -311 -34 -118 -33 -154 3 -185 41 -34
82 -41 196 -34 157 9 233 59 296 191 50 106 43 154 -88 546 -60 181 -304 452
-510 569 -62 35 -131 70 -154 77 -36 13 -216 43 -257 44 -7 0 18 -37 55 -82z"/>
<path d="M30535 31328 c-22 -11 -60 -37 -85 -57 -25 -20 -83 -63 -130 -96
-112 -77 -154 -114 -237 -211 -98 -114 -196 -257 -237 -348 -20 -43 -51 -104
-70 -135 -19 -31 -46 -92 -61 -136 -14 -44 -43 -120 -65 -170 -53 -122 -60
-192 -60 -587 0 -381 7 -448 61 -576 21 -52 50 -137 64 -190 40 -149 303 -591
424 -712 64 -64 389 -277 459 -301 31 -11 96 -39 144 -64 113 -58 181 -70 317
-56 57 6 156 11 220 11 175 1 253 22 207 56 -14 10 -48 14 -115 14 -151 0
-212 14 -351 79 -69 32 -146 66 -173 76 -58 21 -93 50 -228 190 -121 126 -114
116 -169 260 -29 78 -62 141 -116 221 -81 121 -174 315 -207 434 -18 69 -21
110 -25 479 -5 468 1 538 57 702 21 62 48 161 60 219 24 115 116 313 211 455
26 39 65 102 88 140 22 39 71 106 108 150 119 142 121 175 10 175 -41 -1 -74
-7 -101 -22z"/>
<path d="M21210 26124 c-91 -7 -217 -22 -280 -33 -63 -11 -154 -22 -202 -26
-100 -8 -143 -26 -176 -75 -34 -49 -27 -275 12 -415 32 -113 32 -167 0 -280
-23 -81 -26 -116 -33 -350 -8 -260 -8 -260 -48 -380 -56 -162 -63 -212 -73
-474 -8 -211 -10 -233 -40 -331 -68 -229 -80 -297 -91 -488 -9 -184 -31 -326
-69 -457 -40 -135 -50 -205 -50 -338 -1 -155 -16 -250 -59 -367 -58 -158 -71
-228 -80 -434 -8 -191 -8 -191 -55 -335 -50 -153 -65 -254 -66 -427 0 -120
-14 -188 -61 -310 -51 -132 -69 -216 -69 -339 -1 -137 -13 -215 -59 -358 -53
-168 -51 -153 -61 -338 -11 -191 -18 -229 -71 -356 -49 -116 -56 -152 -69
-344 -8 -126 -17 -183 -46 -295 -60 -231 -62 -243 -73 -414 -10 -174 -14 -194
-86 -380 -36 -92 -38 -101 -46 -270 -9 -203 -15 -237 -70 -385 -38 -101 -42
-121 -50 -255 -11 -174 -21 -227 -65 -346 -50 -136 -62 -194 -73 -369 -9 -148
-12 -168 -49 -272 -53 -146 -60 -187 -71 -385 -9 -167 -9 -167 -59 -275 -68
-146 -63 -128 -73 -318 -7 -157 -12 -182 -53 -330 -57 -204 -66 -257 -66 -374
0 -145 -14 -210 -71 -325 -49 -100 -50 -105 -60 -231 -14 -179 -32 -289 -74
-435 -40 -139 -55 -241 -55 -376 0 -101 -17 -173 -60 -249 -55 -99 -62 -136
-70 -350 -8 -216 -2 -183 -86 -417 -22 -61 -27 -96 -34 -247 -10 -206 -18
-246 -71 -363 -52 -118 -59 -153 -68 -368 -8 -184 -9 -186 -54 -320 -52 -155
-55 -170 -66 -380 -8 -148 -11 -162 -55 -290 -62 -184 -65 -199 -76 -415 -7
-157 -13 -206 -35 -280 -75 -258 -77 -267 -85 -505 -9 -237 -8 -232 -74 -415
-39 -108 -57 -240 -66 -480 -8 -220 -8 -220 -54 -379 -49 -171 -54 -208 -32
-259 41 -97 182 -125 290 -57 37 24 52 43 85 112 82 171 93 219 102 453 9 236
13 262 71 430 41 120 41 120 49 362 8 258 16 309 66 407 58 114 64 147 73 386
10 246 12 260 72 435 41 119 41 119 49 345 8 236 16 288 65 397 40 92 54 161
64 322 18 282 63 354 235 381 113 17 5308 9 5360 -9 100 -34 130 -107 139
-337 7 -166 19 -221 71 -324 46 -90 55 -130 65 -285 7 -110 14 -146 36 -197
62 -147 75 -196 84 -331 9 -139 18 -175 69 -275 42 -83 58 -161 65 -322 7
-145 14 -179 73 -340 38 -105 38 -105 38 -720 0 -615 0 -615 -28 -690 -46
-124 -38 -182 32 -217 56 -28 1618 -28 1669 0 44 24 64 70 52 123 -15 65 -77
228 -118 311 -43 85 -54 118 -77 239 -8 45 -34 123 -56 174 -34 77 -42 108
-50 193 -20 216 -27 253 -73 364 -47 114 -58 167 -76 342 -8 83 -19 125 -51
205 -40 102 -51 154 -68 330 -9 86 -16 111 -60 205 -60 129 -58 121 -71 310
-9 136 -14 166 -46 255 -54 152 -61 186 -69 303 -8 142 -21 204 -57 283 -58
126 -68 169 -78 321 -11 174 -18 210 -63 315 -44 103 -57 164 -57 277 0 137
-16 218 -60 323 -52 121 -67 194 -79 379 -8 138 -13 162 -56 295 -40 126 -48
162 -56 275 -14 194 -24 249 -59 323 -63 132 -71 166 -80 345 -10 181 -12 192
-71 376 -37 113 -41 137 -49 290 -11 175 -21 228 -70 336 -47 105 -59 167 -69
377 -9 182 -12 203 -41 285 -70 195 -71 199 -79 388 -8 175 -9 183 -45 275
-75 192 -77 202 -86 401 -9 198 -15 230 -62 349 -41 102 -58 201 -58 333 0
144 -14 235 -46 311 -76 175 -83 210 -93 422 -8 188 -10 205 -41 289 -62 175
-70 212 -76 370 -7 185 -21 256 -72 376 -48 112 -62 181 -62 303 0 135 -15
216 -66 365 -46 132 -46 137 -55 310 -9 186 -21 249 -68 360 -42 99 -59 186
-71 358 -9 139 -14 165 -56 295 -41 129 -47 157 -55 288 -13 203 -22 247 -69
352 -51 113 -70 195 -70 313 -1 147 -15 224 -66 352 -46 117 -47 120 -55 276
-10 178 -16 207 -69 327 -54 119 -58 143 -69 346 -8 157 -12 189 -36 255 -73
198 -73 200 -83 357 -10 153 -10 153 -67 272 -57 119 -57 119 -66 277 -9 169
-19 217 -68 330 -32 73 -43 130 -61 312 -8 84 -18 124 -55 215 -53 133 -61
167 -70 311 -13 215 -90 370 -278 562 -139 142 -174 166 -338 229 -170 66
-367 79 -749 48z m-82 -957 c6 -7 21 -53 32 -102 11 -48 40 -138 64 -199 63
-158 66 -173 75 -352 9 -154 11 -166 46 -250 69 -165 76 -193 86 -324 12 -172
15 -188 66 -330 42 -118 45 -133 58 -310 15 -205 17 -213 71 -331 47 -106 52
-125 64 -294 9 -125 15 -154 55 -270 49 -144 65 -227 65 -356 0 -117 15 -186
65 -309 50 -123 50 -124 70 -301 10 -93 26 -174 50 -254 51 -168 62 -225 70
-355 7 -134 22 -198 71 -312 42 -97 63 -201 64 -314 0 -108 13 -172 60 -296
39 -105 60 -214 60 -317 0 -88 18 -167 61 -268 51 -121 66 -190 73 -351 5
-123 9 -142 50 -265 44 -131 55 -191 76 -408 7 -86 18 -130 54 -225 53 -144
63 -192 76 -359 9 -130 16 -159 79 -336 26 -72 32 -109 40 -235 10 -152 24
-214 68 -313 36 -83 52 -160 64 -321 11 -146 18 -177 84 -358 21 -59 28 -103
36 -225 10 -159 25 -230 64 -307 54 -106 67 -166 74 -345 7 -153 11 -176 35
-235 70 -165 77 -195 86 -359 9 -166 16 -198 74 -329 43 -97 52 -142 65 -347
9 -141 12 -158 56 -280 45 -124 47 -137 56 -285 11 -181 16 -204 74 -330 47
-104 65 -193 65 -328 0 -96 19 -185 60 -282 43 -103 50 -142 60 -311 9 -155 6
-142 98 -394 34 -92 38 -277 8 -337 -40 -81 -47 -83 -431 -86 -187 -2 -385 -4
-440 -5 -55 0 -210 0 -345 1 -135 2 -470 2 -745 1 -275 -1 -612 0 -750 1 -137
2 -320 3 -405 3 -85 0 -198 0 -250 0 -52 0 -468 -1 -925 -4 -771 -4 -834 -3
-887 14 -71 21 -110 54 -139 115 -27 54 -27 77 -11 492 9 246 9 246 50 365 61
181 64 196 71 390 8 180 8 180 60 310 57 140 61 161 80 435 8 110 17 160 49
270 53 178 59 217 66 398 6 156 22 234 65 308 52 88 63 142 71 339 5 105 11
201 15 215 4 14 24 79 45 145 44 138 60 237 60 371 0 118 21 220 66 327 47
109 64 184 64 287 1 154 18 275 51 368 52 146 66 216 72 387 7 176 20 238 71
355 52 118 56 141 65 360 7 167 12 215 29 260 88 241 83 214 92 438 8 220 14
251 70 363 43 85 58 152 65 299 8 170 26 276 71 415 32 98 37 128 45 275 11
198 20 246 69 370 52 134 61 175 70 350 7 110 16 181 33 245 78 289 78 287 83
430 7 196 19 263 71 395 50 127 58 169 72 375 8 128 13 152 56 280 47 139 47
141 56 323 9 200 11 207 75 398 49 145 63 230 64 380 0 126 12 192 55 303 48
124 55 163 64 356 9 181 5 161 91 400 31 86 33 99 41 290 9 239 7 230 74 375
29 63 61 137 70 165 24 72 41 89 63 62z"/>
<path d="M37470 26120 c-147 -23 -422 -28 -905 -17 -243 6 -418 5 -510 -2 -98
-7 -286 -7 -625 1 -377 8 -523 8 -655 -2 -147 -11 -190 -10 -315 3 -121 14
-188 15 -405 7 -143 -5 -989 -10 -1880 -11 -891 -1 -1723 -1 -1850 -1 -826 -2
-2386 -2 -2515 -2 -85 1 -319 3 -520 5 -403 3 -399 4 -453 -61 -70 -82 -54
-348 27 -454 55 -72 86 -79 359 -74 229 5 246 6 327 32 234 75 258 78 785 86
264 4 510 13 546 19 37 6 147 15 245 20 99 6 235 15 303 21 99 9 159 8 300 -5
97 -8 210 -15 252 -15 151 0 217 -52 240 -188 6 -37 10 -3304 9 -9175 0 -6703
2 -9129 11 -9160 12 -47 39 -81 84 -105 41 -23 1195 -26 1259 -3 53 18 115 77
140 131 21 45 21 45 26 9195 5 9150 5 9150 26 9196 56 121 136 137 739 152
629 15 1115 8 1575 -23 80 -6 249 -15 375 -20 127 -5 289 -15 360 -21 72 -5
596 -14 1165 -19 1396 -11 1425 -15 1491 -180 17 -44 27 -8977 10 -9090 -21
-134 -57 -153 -301 -161 -137 -4 -195 -10 -222 -22 -83 -35 -102 -136 -38
-202 36 -37 88 -54 237 -80 200 -34 278 -77 313 -170 13 -35 15 -568 20 -4295
5 -4255 5 -4255 27 -4297 12 -22 34 -50 48 -61 59 -46 69 -47 660 -47 560 0
560 0 602 23 47 24 67 55 84 128 9 42 27 3026 21 3679 -9 1165 -4 4768 7 4814
19 74 67 127 135 146 53 15 463 18 1746 14 261 -1 1218 -1 2125 1 1543 2 1653
1 1692 -15 52 -21 99 -72 112 -122 6 -24 12 -516 14 -1308 3 -819 8 -1320 16
-1411 11 -140 17 -283 47 -1114 8 -234 19 -504 24 -600 23 -426 29 -897 29
-2422 1 -1761 -1 -1708 55 -1764 54 -54 62 -55 733 -52 569 3 621 4 650 21 80
43 86 109 23 246 -42 93 -42 93 -50 274 -4 100 -8 4264 -8 9253 1 8438 0 9074
-16 9121 -17 52 -61 105 -107 128 -54 28 -166 34 -764 37 -611 3 -611 3 -659
-22 -104 -54 -115 -148 -34 -308 52 -104 52 -104 59 -290 9 -213 14 -262 39
-387 10 -49 21 -135 25 -190 4 -55 16 -152 28 -215 22 -115 22 -115 25 -3302
3 -3466 7 -3185 -52 -3616 -48 -351 -58 -496 -65 -982 -7 -521 -6 -517 -80
-562 -36 -23 -36 -23 -2791 -26 -2034 -2 -2769 0 -2808 8 -65 14 -118 58 -131
108 -30 110 -41 533 -20 765 8 92 6 168 -6 349 -9 126 -14 242 -11 257 18 91
23 3203 6 3526 -6 113 -6 250 2 410 6 132 11 267 11 300 -1 33 -4 256 -8 495
-4 239 -7 478 -7 530 9 2443 7 2985 -15 3026 -28 53 -83 101 -130 113 -197 52
-1046 72 -1313 31z"/>
<path d="M51715 26099 c-137 -4 -322 -6 -410 -3 -155 6 -161 5 -205 -18 -50
-28 -83 -81 -100 -163 -17 -85 -30 -852 -19 -1130 6 -147 7 -291 2 -350 -5
-55 -6 -266 -3 -470 4 -315 5 -2396 2 -5120 -2 -1753 -2 -1754 1 -2810 0 -379
0 -859 -2 -1065 -1 -206 1 -611 5 -900 4 -289 7 -545 6 -570 -6 -166 -13
-3154 -9 -3710 1 -184 1 -506 0 -715 -2 -209 -1 -722 0 -1140 2 -749 3 -761
23 -806 50 -109 63 -111 679 -107 499 3 511 3 550 24 100 54 97 22 94 811 -2
373 -1 752 2 843 5 197 5 524 0 670 -2 58 0 510 3 1005 3 495 5 1251 4 1680
-1 429 -1 836 -1 905 0 69 0 526 0 1015 1 490 1 1093 1 1340 0 466 0 564 -2
950 0 127 0 372 1 545 8 1565 8 1511 0 2035 -4 281 -3 487 5 595 8 128 8 254
-3 560 -8 217 -13 487 -12 600 9 1352 10 4051 1 4180 -8 120 -7 201 3 360 15
231 15 214 5 520 -9 254 -19 306 -70 367 -68 79 -129 87 -551 72z"/>
<path d="M57965 26101 c-183 -25 -213 -99 -185 -460 9 -109 16 -143 60 -270
64 -188 74 -255 68 -466 -6 -185 2 -150 -93 -415 -24 -65 -28 -98 -36 -260
-10 -199 -24 -285 -69 -414 -37 -107 -48 -177 -55 -371 -6 -175 -18 -234 -72
-364 -45 -108 -62 -205 -63 -347 0 -133 -12 -204 -51 -302 -46 -116 -59 -191
-69 -387 -8 -182 -8 -182 -65 -349 -56 -167 -56 -167 -71 -369 -15 -222 -17
-233 -62 -364 -37 -106 -48 -177 -61 -378 -8 -147 -10 -152 -60 -282 -57 -147
-70 -219 -71 -373 -1 -148 -14 -225 -66 -384 -46 -139 -46 -140 -54 -335 -10
-209 -16 -244 -73 -386 -51 -127 -54 -148 -61 -354 -7 -196 -12 -219 -81 -381
-26 -60 -29 -79 -37 -255 -10 -231 -19 -285 -68 -394 -57 -128 -60 -147 -69
-386 -9 -220 -9 -220 -61 -380 -52 -160 -52 -160 -60 -341 -7 -181 -7 -181
-54 -296 -58 -143 -72 -214 -80 -398 -7 -151 -23 -241 -76 -425 -27 -94 -33
-137 -42 -295 -11 -196 -15 -214 -93 -438 -34 -98 -37 -113 -45 -290 -11 -210
-11 -210 -70 -381 -42 -124 -42 -124 -50 -330 -8 -211 -19 -272 -67 -365 -43
-83 -55 -142 -68 -346 -14 -206 -17 -227 -79 -435 -21 -70 -30 -132 -41 -280
-14 -197 -19 -219 -78 -370 -41 -104 -57 -203 -57 -353 0 -124 -14 -197 -63
-339 -43 -122 -57 -215 -57 -376 0 -143 -15 -222 -63 -332 -45 -106 -64 -194
-72 -340 -9 -178 -22 -254 -66 -382 -39 -112 -41 -122 -54 -332 -13 -211 -14
-219 -54 -331 -58 -166 -71 -230 -81 -423 -11 -192 -14 -211 -72 -387 -38
-118 -41 -134 -48 -295 -9 -188 -11 -201 -77 -393 -54 -159 -61 -246 -24 -305
66 -107 253 -69 322 65 11 21 28 93 38 160 14 90 30 150 59 223 46 113 49 134
62 372 8 171 9 174 59 320 58 173 71 235 71 354 0 133 17 230 67 379 45 133
46 137 54 315 9 213 16 247 76 385 45 103 45 107 54 255 12 196 24 275 59 387
48 154 59 216 66 378 11 289 63 371 250 400 48 7 865 10 2649 8 2580 -3 2580
-3 2622 -27 58 -33 80 -82 93 -206 8 -74 20 -122 47 -185 68 -165 73 -184 83
-339 11 -170 16 -195 66 -346 25 -78 40 -148 51 -240 14 -126 26 -172 92 -356
23 -63 35 -124 47 -230 12 -116 24 -169 59 -274 53 -159 53 -160 65 -365 7
-133 15 -188 41 -285 91 -341 92 -483 8 -759 -62 -200 -77 -347 -42 -395 53
-70 7 -66 823 -69 788 -4 817 -2 864 45 51 50 29 138 -95 385 -32 65 -57 132
-70 188 -22 101 -20 97 -71 218 -35 82 -40 105 -49 220 -12 165 -24 219 -69
322 -49 114 -58 153 -70 320 -8 111 -16 158 -36 214 -76 206 -76 204 -84 366
-10 166 -18 203 -73 320 -40 84 -52 143 -66 311 -6 72 -18 139 -31 175 -72
196 -72 195 -81 343 -12 190 -23 250 -65 342 -58 130 -64 155 -74 327 -9 154
-13 172 -55 299 -47 142 -65 246 -65 373 0 115 -17 195 -66 315 -49 121 -59
174 -73 375 -9 125 -13 144 -56 260 -46 122 -48 129 -56 280 -12 224 -17 263
-45 343 -66 186 -76 225 -85 337 -19 234 -28 290 -58 377 -52 152 -61 203 -71
383 -10 198 -15 228 -78 395 -43 118 -45 124 -58 313 -12 172 -17 202 -45 280
-53 147 -68 212 -69 302 -1 190 -18 322 -50 411 -87 236 -82 210 -90 404 -8
173 -9 185 -50 310 -46 146 -70 279 -70 405 -1 118 -20 214 -75 365 -47 130
-47 130 -60 341 -13 210 -14 212 -60 350 -46 134 -48 145 -56 304 -11 209 -20
256 -75 395 -47 122 -63 204 -64 330 -1 111 -21 212 -70 354 -41 120 -42 124
-50 314 -9 205 -14 228 -79 369 -36 78 -47 144 -60 353 -9 138 -14 161 -56
287 -41 126 -46 151 -59 310 -12 146 -19 187 -46 263 -77 217 -80 230 -90 393
-11 175 -16 200 -66 357 -21 63 -40 148 -45 200 -23 221 -28 243 -72 352 -50
120 -63 176 -72 308 -9 135 -23 199 -66 313 -35 93 -41 122 -54 263 -13 142
-19 171 -56 272 -60 161 -68 196 -78 355 -8 118 -15 157 -41 230 -61 170 -69
201 -80 318 -13 142 -20 169 -70 285 -22 50 -48 133 -60 191 -37 183 -78 248
-253 392 -55 45 -122 100 -150 124 -58 47 -117 72 -257 109 -94 24 -98 25
-465 22 -203 -2 -437 -1 -520 3 -82 4 -177 3 -210 -1z m604 -1158 c85 -154 97
-199 109 -413 11 -169 10 -167 77 -345 22 -58 29 -100 40 -251 11 -150 18
-194 40 -255 90 -247 86 -230 95 -402 11 -183 16 -211 60 -317 43 -104 50
-143 60 -317 10 -165 24 -234 75 -361 44 -109 54 -158 64 -332 8 -132 12 -154
46 -245 55 -146 55 -145 70 -336 15 -182 19 -199 94 -411 27 -73 33 -109 41
-238 11 -166 13 -178 71 -360 38 -116 41 -136 50 -295 10 -196 17 -232 63
-324 50 -98 64 -159 74 -326 9 -132 15 -165 50 -275 52 -163 50 -150 67 -360
13 -170 17 -187 51 -268 72 -171 75 -186 85 -367 9 -178 17 -215 80 -390 30
-84 32 -102 40 -275 8 -196 16 -236 73 -348 38 -75 54 -163 65 -348 8 -154 10
-164 49 -260 49 -123 59 -173 67 -344 8 -170 15 -202 70 -314 52 -108 65 -173
65 -320 0 -124 18 -223 50 -287 52 -101 62 -147 70 -334 8 -187 20 -248 72
-348 41 -81 50 -124 62 -307 13 -185 13 -185 61 -305 47 -120 47 -120 60 -315
14 -207 11 -189 95 -416 24 -65 40 -160 40 -249 1 -89 18 -179 64 -334 22 -74
41 -166 47 -225 24 -248 30 -277 68 -379 56 -147 73 -237 73 -403 1 -174 -14
-219 -87 -254 -47 -23 -136 -25 -835 -17 -113 1 -565 2 -1005 1 -440 0 -894
-1 -1010 0 -115 0 -644 -2 -1175 -5 -992 -6 -1015 -5 -1058 34 -50 46 -57 73
-55 212 1 141 10 184 78 373 35 98 37 114 50 312 14 205 15 212 59 342 49 147
52 164 66 393 10 157 37 301 75 392 36 85 47 154 55 333 9 195 8 191 80 394
30 84 33 102 41 285 9 212 12 228 70 372 49 123 56 160 68 354 6 99 17 187 29
230 11 39 32 113 46 165 21 73 30 140 41 295 14 203 24 256 71 360 42 96 54
162 65 348 10 179 19 228 89 477 17 57 24 121 30 270 9 211 14 233 85 405 38
89 38 90 51 311 12 207 14 227 44 310 59 163 68 211 78 394 9 167 11 181 51
299 63 187 71 229 81 441 9 193 16 232 60 355 43 121 51 170 60 365 9 208 15
238 84 378 38 75 45 122 55 352 8 205 8 205 55 343 46 134 48 145 61 330 15
201 22 235 90 425 33 94 37 118 45 255 12 196 32 328 70 451 39 129 50 198 50
332 0 145 13 211 62 314 59 125 67 166 73 355 7 202 14 249 66 414 43 135 58
247 59 423 0 133 13 180 98 353 70 142 87 169 103 159 4 -2 39 -61 78 -131z"/>
<path d="M41933 6110 c-131 -27 -144 -94 -50 -249 90 -148 82 62 82 -2296 0
-2362 7 -2144 -75 -2286 -75 -127 -72 -207 9 -253 41 -24 276 -39 466 -30 288
13 313 53 200 316 -92 215 -86 127 -83 1149 3 904 3 904 26 957 28 67 28 113
-1 182 -22 55 -22 55 -27 1240 -6 1324 2 1213 -80 1253 -41 20 -61 22 -235 24
-104 1 -209 -2 -232 -7z"/>
<path d="M43472 6079 c-79 -24 -28 -85 163 -196 83 -49 168 -132 211 -205 129
-221 165 -299 240 -527 42 -128 54 -425 23 -569 -18 -85 -130 -367 -176 -446
-85 -145 -229 -312 -324 -375 -32 -22 -101 -56 -151 -76 -127 -49 -332 -157
-336 -175 -2 -10 52 -58 145 -130 192 -148 235 -189 296 -280 28 -41 73 -104
100 -140 27 -35 57 -82 67 -105 10 -22 45 -98 78 -170 33 -71 65 -146 72 -165
7 -19 32 -71 56 -115 23 -44 56 -129 73 -188 17 -59 45 -136 62 -170 18 -34
43 -93 56 -132 13 -38 41 -100 63 -137 22 -37 56 -113 76 -170 20 -56 46 -123
59 -148 13 -25 39 -85 58 -133 56 -139 132 -235 223 -280 84 -43 369 -70 483
-46 157 32 164 93 30 247 -70 79 -262 393 -329 537 -28 60 -68 138 -89 175
-80 137 -160 287 -182 340 -12 30 -39 80 -58 110 -20 30 -60 105 -91 165 -73
145 -244 409 -332 513 -83 97 -171 175 -307 272 -139 98 -168 143 -123 188 35
35 191 123 269 151 43 16 137 57 208 92 128 63 132 66 267 199 137 135 137
135 202 270 63 127 68 143 91 280 13 80 28 165 34 190 16 68 13 146 -9 238
-11 46 -24 123 -30 173 -14 118 -22 141 -116 298 -111 187 -179 258 -378 390
-218 146 -221 147 -311 171 -44 12 -114 34 -155 50 -87 32 -161 43 -208 29z"/>
<path d="M56555 4709 c-193 -22 -249 -38 -231 -68 4 -5 32 -15 64 -21 93 -18
142 -39 245 -107 219 -144 327 -301 376 -547 32 -160 77 -194 199 -157 171 51
230 174 204 414 -25 222 -88 294 -397 451 -80 41 -80 41 -230 43 -82 1 -186
-3 -230 -8z"/>
<path d="M47162 4680 c-62 -25 -32 -66 94 -126 115 -54 208 -163 302 -350 17
-34 45 -85 62 -113 41 -71 67 -152 75 -236 3 -38 13 -126 22 -195 14 -108 14
-140 3 -238 -16 -137 -7 -168 62 -204 65 -34 261 -34 331 0 117 58 153 249
102 541 -44 250 -102 356 -302 551 -152 149 -242 204 -442 270 -47 15 -121 46
-164 69 -79 42 -104 47 -145 31z"/>
<path d="M50163 4678 c-36 -17 -28 -45 31 -106 94 -99 159 -233 272 -556 16
-48 27 -108 33 -191 14 -185 39 -226 141 -233 79 -6 133 21 207 103 118 129
151 216 127 331 -43 210 -275 494 -451 555 -32 11 -97 38 -145 60 -94 43 -176
57 -215 37z"/>
<path d="M49405 4654 c-33 -14 -99 -41 -146 -58 -127 -48 -165 -74 -272 -185
-82 -85 -104 -116 -142 -196 -111 -230 -121 -308 -59 -455 19 -47 48 -123 65
-170 41 -118 77 -166 263 -347 161 -156 175 -167 368 -277 26 -14 92 -62 145
-105 54 -43 141 -102 193 -131 52 -29 136 -85 185 -125 50 -40 131 -101 180
-136 129 -91 206 -174 319 -342 131 -197 129 -191 129 -422 0 -243 -9 -273
-155 -499 -61 -95 -51 -146 29 -146 54 0 71 9 231 117 145 97 190 137 234 208
17 28 55 88 85 134 65 104 80 153 88 301 9 177 -6 308 -45 387 -54 110 -170
251 -347 423 -218 213 -279 262 -389 316 -50 24 -124 69 -164 99 -40 30 -103
73 -139 96 -156 99 -231 153 -306 221 -44 41 -114 101 -156 135 -232 188 -375
498 -314 684 47 143 132 298 205 373 73 76 83 98 51 116 -31 16 -72 11 -136
-16z"/>
<path d="M53504 4670 c-39 -15 -35 -27 32 -85 36 -32 89 -88 119 -124 29 -36
88 -105 132 -152 93 -102 134 -173 163 -288 11 -46 44 -129 71 -184 74 -147
86 -293 36 -465 -38 -134 -1 -167 188 -167 140 0 184 15 259 90 71 71 81 101
81 240 0 120 0 120 -53 230 -28 61 -61 139 -72 175 -29 95 -62 145 -183 280
-212 234 -328 322 -496 375 -43 14 -103 36 -133 49 -63 27 -115 37 -144 26z"/>
<path d="M60309 4671 c-94 -29 -103 -52 -96 -270 5 -181 16 -238 49 -268 41
-37 123 77 296 410 48 92 -1 138 -143 136 -44 0 -92 -4 -106 -8z"/>
<path d="M52720 4635 c-34 -21 -84 -41 -130 -51 -94 -21 -143 -46 -250 -125
-167 -123 -275 -227 -391 -378 -125 -163 -148 -196 -165 -241 -9 -25 -39 -89
-65 -142 -37 -74 -53 -120 -65 -190 -16 -93 -25 -121 -83 -254 -46 -107 -54
-182 -48 -488 5 -298 7 -308 74 -461 22 -49 50 -133 62 -187 23 -102 129 -325
214 -453 133 -198 464 -517 620 -597 23 -11 97 -40 166 -63 70 -24 153 -53
186 -65 101 -37 337 -13 320 32 -11 27 -182 139 -260 169 -146 57 -294 139
-354 199 -78 76 -106 130 -136 255 -32 135 -51 179 -124 280 -75 103 -85 124
-111 226 -12 46 -41 128 -66 181 -70 154 -75 187 -81 490 -6 321 0 379 67 578
27 80 54 177 60 215 19 119 32 168 58 220 14 28 44 93 67 145 46 106 219 373
338 522 67 84 86 101 141 127 70 34 91 53 82 76 -10 27 -68 18 -126 -20z"/>
<path d="M55073 4660 c-78 -24 -87 -78 -32 -184 56 -108 60 -126 70 -386 5
-135 14 -281 21 -325 17 -120 12 -1558 -7 -1985 -21 -465 -26 -512 -64 -598
-37 -84 -39 -112 -8 -147 32 -38 78 -44 318 -45 231 0 265 5 312 48 58 55 56
99 -12 277 -46 120 -46 120 -49 1382 -2 1262 -2 1262 28 1352 39 119 38 136
-14 280 -67 186 -100 225 -256 300 -69 33 -83 36 -175 38 -55 1 -114 -2 -132
-7z"/>
<path d="M57867 4658 c-85 -23 -85 -80 -1 -213 76 -119 138 -252 168 -356 14
-47 43 -124 65 -170 22 -47 51 -131 65 -186 14 -56 38 -128 55 -160 34 -69 57
-145 66 -223 10 -86 23 -128 72 -233 37 -81 48 -119 64 -222 14 -97 27 -143
58 -212 25 -55 44 -117 51 -163 25 -167 33 -198 81 -297 45 -91 52 -115 65
-220 11 -81 25 -141 46 -193 51 -125 57 -147 73 -250 19 -124 30 -158 91 -265
130 -230 232 -295 459 -295 154 0 185 40 151 192 -8 35 -17 86 -21 113 -6 46
-13 56 -75 115 -111 104 -198 279 -219 442 -12 90 -31 152 -76 253 -15 33 -38
110 -51 172 -13 62 -42 156 -64 211 -25 62 -45 135 -55 198 -20 125 -37 184
-81 286 -23 51 -43 122 -56 192 -20 110 -33 155 -82 271 -13 33 -32 103 -41
155 -11 66 -30 124 -60 190 -55 122 -62 145 -74 260 -13 122 -25 158 -101 313
-74 151 -98 175 -248 250 -99 49 -107 51 -195 54 -51 1 -109 -3 -130 -9z"/>
<path d="M61805 4644 c-33 -14 -98 -41 -145 -61 -199 -82 -237 -109 -428 -297
-229 -225 -297 -321 -427 -604 -70 -152 -78 -178 -95 -307 -7 -49 -32 -152
-56 -228 -73 -227 -70 -425 7 -651 32 -92 44 -146 54 -245 7 -69 20 -144 28
-166 27 -72 117 -257 146 -299 15 -22 50 -84 77 -136 44 -86 65 -111 216 -265
101 -103 187 -182 220 -201 143 -84 257 -145 298 -159 24 -9 89 -37 145 -62
97 -46 103 -47 195 -47 94 0 244 27 256 45 3 5 -9 17 -27 27 -17 9 -72 43
-121 75 -50 32 -126 71 -170 87 -280 102 -466 316 -503 579 -26 182 -74 301
-120 301 -24 0 -72 49 -88 87 -8 21 -34 128 -57 238 -23 110 -44 203 -46 206
-16 26 -35 172 -35 265 0 91 6 142 35 270 39 175 51 246 61 344 10 99 22 146
65 255 21 55 51 138 65 185 53 175 242 430 503 678 82 79 86 84 68 98 -28 20
-52 17 -121 -12z"/>
<path d="M62598 4659 c-32 -18 -19 -45 58 -114 67 -60 136 -142 282 -334 41
-52 92 -163 159 -346 32 -85 43 -304 24 -459 -22 -174 8 -201 224 -201 251 0
295 55 295 364 0 177 -15 244 -85 380 -135 263 -253 402 -440 513 -150 89
-178 102 -268 127 -43 12 -99 32 -125 45 -59 30 -102 39 -124 25z"/>
<path d="M46220 4561 c-81 -26 -206 -92 -276 -145 -106 -79 -273 -262 -329
-359 -27 -48 -81 -135 -119 -194 -46 -72 -81 -143 -106 -213 -21 -58 -49 -132
-63 -166 -15 -33 -31 -91 -36 -130 -16 -111 -23 -599 -12 -854 11 -250 14
-268 74 -405 19 -44 47 -113 62 -154 15 -40 62 -126 104 -190 42 -64 101 -156
131 -206 73 -121 233 -280 351 -349 46 -28 118 -73 160 -101 42 -29 109 -64
150 -78 41 -14 110 -41 153 -61 102 -45 173 -53 295 -32 111 20 140 32 120 52
-42 41 -232 147 -305 169 -97 30 -140 59 -257 174 -142 138 -216 263 -282 476
-47 151 -58 173 -140 270 -103 124 -98 95 -103 699 -4 582 0 633 53 765 20 49
49 139 66 202 16 63 45 141 64 177 20 35 51 102 70 149 49 122 73 159 180 274
185 200 183 292 -5 230z"/>
<path d="M48854 2019 c-91 -26 -198 -145 -230 -256 -54 -187 86 -443 316 -580
47 -28 118 -71 157 -95 79 -49 91 -53 296 -98 208 -45 224 -39 129 49 -127
117 -231 271 -317 466 -78 176 -84 194 -96 304 -14 129 -36 176 -91 201 -45
21 -112 24 -164 9z"/>
</g>
</svg>
