<svg width="160" height="104" viewBox="0 0 160 104" fill="none" xmlns="http://www.w3.org/2000/svg">
<g clip-path="url(#clip0_248_347)">
<path d="M51.9111 7.97702C52.0884 8.14509 52.3353 8.17923 52.5611 8.23044L52.6898 8.66376L50.1739 9.92694C50.0741 7.8943 47.4887 5.58328 45.5309 5.44804C35.9546 4.78231 36.2199 15.7018 35.889 21.1498C35.0749 34.5327 35.8969 48.0692 35.2758 61.4468C38.5558 70.0054 45.8697 77.9193 55.7453 77.5319C56.7669 77.4925 58.8245 76.8373 59.5165 76.8872C59.6924 76.9004 59.8421 76.9371 59.9458 77.0907L60.0207 77.9259C59.9143 78.0821 56.8286 78.7019 56.3428 78.7623C40.9811 80.6557 35.306 70.0816 29.4904 58.4254C22.2987 44.0131 15.2514 29.4222 8.42207 14.8352C8.28419 14.5411 8.18177 14.2443 8.18571 13.9161C7.82068 13.8662 7.98744 14.3927 7.97825 14.6474C7.49241 27.1466 8.1043 39.9465 8.19622 52.4286C8.22642 56.549 8.75296 70.1905 7.38736 73.8711C6.23186 76.9844 3.4245 79.1431 0 78.9737L0.00393923 78.3526C6.27125 75.5019 6.23054 72.0393 6.50498 67.9504C7.56069 52.2106 6.52992 29.5889 6.93698 13.8018C7.01445 12.708 6.23711 12.0817 5.87995 11.1875C7.22192 11.3201 10.1882 10.1738 11.1375 11.3372L27.1111 44.8508L34.2174 59.0491L34.2279 41.0928C34.1413 33.2524 34.6389 23.298 34.9738 15.4707C35.2548 8.87779 39.3962 2.09838 47.4992 4.72978C50.0019 5.54652 50.2488 6.39608 51.9124 7.97702H51.9111Z" fill="white"/>
<path d="M96.7923 18.2695V43.4123H111.63C111.484 41.507 111.772 39.5663 111.782 37.686C111.81 32.3995 112.103 25.4271 111.639 20.2194C111.572 19.4723 111.381 18.9103 111.013 18.2695H115.341V65.5665C115.341 65.7753 115.859 66.3307 115.753 66.6997H111.94L111.528 44.2369H96.7923V66.6997H93.3914L93.0828 66.3911V44.2369L91.4336 44.1332V43.4136H93.0828V18.2708H96.7923V18.2695Z" fill="white"/>
<path d="M53.6164 18.2647C54.3438 18.4262 55.1408 19.4254 55.1921 20.1936C58.5154 34.4916 60.4601 49.1574 63.8807 63.4371C64.1564 64.59 64.3508 65.714 65.0533 66.6948H60.1069C61.1193 63.4633 59.411 59.6791 58.9566 56.378L44.652 56.3924L42.991 66.683L41.9707 66.6948C42.3003 64.3457 42.6417 61.9769 43.0579 59.641C45.4175 46.371 48.435 33.151 50.2129 19.8128L49.8032 18.2647C50.9009 18.4288 52.6092 18.0414 53.6164 18.2647ZM58.8726 55.5665L51.455 19.7077L45.0906 54.4596L45.0656 55.5678C45.2665 55.4037 45.4517 55.5665 45.579 55.5665H58.8713H58.8726Z" fill="white"/>
<path d="M159.649 66.6997H154.702C155.172 65.7924 155.209 64.9454 155.112 63.9199C154.887 61.5433 153.851 58.8501 153.662 56.4052L139.57 56.3829L137.762 66.3504L137.471 66.6761L136.773 66.6997L144.918 21.1609L144.397 18.2695H148.21C148.401 18.2695 149.365 18.9523 149.525 19.2215C149.825 19.7257 150.127 21.2949 150.281 21.9685C153.354 35.4695 155.222 49.3093 158.27 62.8222C158.574 64.1733 158.75 65.5875 159.649 66.6984V66.6997ZM139.967 55.5714H153.465L146.354 19.7113L139.967 55.5714Z" fill="white"/>
<path d="M95.7612 18.2695V19.9161C92.9 19.3187 81.3712 19.1624 78.4509 19.3003V66.3911L78.1424 66.6997H74.7415V19.3003C71.8291 19.1992 68.9416 19.362 66.087 19.9188L65.8809 18.2695H95.7625H95.7612Z" fill="white"/>
<path d="M130.796 18.2695H127.293V66.6997H130.796V18.2695Z" fill="white"/>
<path d="M109.762 79.2062C109.423 78.3789 109.131 77.7277 108.887 77.251C108.643 76.7744 108.385 76.4146 108.116 76.1704C107.847 75.9261 107.531 75.7699 107.167 75.7003C106.803 75.632 106.333 75.5965 105.757 75.5965V79.2075C105.757 80.2488 105.829 80.9683 105.973 81.3701C106.118 81.7719 106.365 81.9715 106.717 81.9715V82.0464H103.482V81.9715C103.658 81.9715 103.808 81.9242 103.934 81.831C104.059 81.7365 104.16 81.5842 104.235 81.3701C104.31 81.1574 104.363 80.8751 104.395 80.5245C104.427 80.1739 104.442 79.7354 104.442 79.2088V71.7243C104.442 71.1977 104.427 70.7592 104.395 70.4086C104.363 70.058 104.311 69.7757 104.235 69.563C104.16 69.3502 104.059 69.1966 103.934 69.1021C103.808 69.0075 103.658 68.9616 103.482 68.9616V68.8867H107.055C107.695 68.8867 108.278 68.9681 108.804 69.131C109.331 69.2938 109.788 69.5262 110.176 69.8269C110.565 70.1276 110.866 70.4821 111.079 70.8892C111.291 71.2962 111.398 71.7453 111.398 72.2338C111.398 72.6723 111.31 73.0833 111.135 73.4654C110.959 73.8475 110.715 74.1837 110.401 74.4712C110.087 74.7601 109.712 74.9978 109.273 75.1855C108.835 75.3733 108.351 75.4994 107.825 75.5611C108.2 75.6359 108.53 75.7528 108.812 75.9091C109.095 76.0653 109.361 76.2846 109.612 76.5669C109.863 76.8492 110.113 77.2064 110.364 77.6384C110.615 78.0704 110.897 78.5943 111.21 79.2088L111.36 79.5095C111.823 80.4247 112.209 81.0642 112.516 81.4279C112.824 81.7916 113.147 81.9728 113.485 81.9728V82.0477H111.868C111.253 82.0477 110.826 81.7588 110.589 81.1824L109.762 79.2075V79.2062ZM106.979 75.4075C107.405 75.4075 107.797 75.33 108.154 75.1724C108.511 75.0162 108.819 74.7969 109.076 74.5146C109.333 74.2323 109.533 73.8974 109.678 73.5087C109.822 73.1201 109.894 72.6946 109.894 72.2298C109.894 71.765 109.822 71.3395 109.678 70.9509C109.533 70.5622 109.332 70.23 109.076 69.9542C108.819 69.6785 108.511 69.4618 108.154 69.3056C107.797 69.1493 107.405 69.0706 106.979 69.0706H105.757V75.4075H106.979Z" fill="white"/>
<path d="M120.461 75.703C120.461 75.9407 120.389 76.1298 120.245 76.2676C120.1 76.4055 119.903 76.4751 119.652 76.4751H118.618C117.44 76.4751 116.509 76.7482 115.825 77.2931C115.142 77.8381 114.801 78.5813 114.801 79.5214C114.801 79.7342 114.823 79.9416 114.866 80.1425C114.91 80.3434 114.963 80.5443 115.026 80.7439C115.302 81.0945 115.625 81.365 115.995 81.5528C116.364 81.7405 116.782 81.8351 117.245 81.8351C117.584 81.8351 117.913 81.7812 118.233 81.6749C118.552 81.5685 118.85 81.4175 119.126 81.2232C119.402 81.0289 119.65 80.7977 119.869 80.5273C120.088 80.2581 120.26 79.96 120.386 79.6344H120.574C120.411 80.023 120.199 80.3776 119.935 80.6966C119.672 81.0157 119.381 81.2888 119.06 81.5147C118.741 81.7405 118.393 81.9165 118.016 82.0412C117.641 82.166 117.257 82.229 116.869 82.229C116.304 82.229 115.771 82.1003 115.271 81.843C114.769 81.5856 114.33 81.2376 113.955 80.7991C113.579 80.3605 113.281 79.8431 113.062 79.2483C112.843 78.6535 112.732 78.0167 112.732 77.3391C112.732 76.6616 112.841 76.026 113.062 75.4299C113.281 74.8351 113.579 74.3177 113.955 73.8792C114.33 73.4406 114.769 73.0926 115.271 72.8353C115.772 72.5779 116.305 72.4492 116.869 72.4492C117.357 72.4492 117.818 72.5372 118.251 72.7118C118.683 72.8878 119.065 73.1228 119.399 73.417C119.731 73.7111 119.991 74.0564 120.179 74.4517C120.367 74.8469 120.461 75.2631 120.461 75.7017V75.703ZM119.144 75.6663C119.144 75.2658 119.081 74.8797 118.956 74.5094C118.832 74.1405 118.665 73.8174 118.459 73.5404C118.251 73.2646 118.011 73.0454 117.735 72.8825C117.459 72.7197 117.171 72.6383 116.87 72.6383C116.481 72.6383 116.118 72.763 115.779 73.0138C115.44 73.2646 115.142 73.6034 114.886 74.0288C114.629 74.4556 114.425 74.9532 114.275 75.5231C114.124 76.0943 114.049 76.6983 114.049 77.3378C114.049 77.9274 114.106 78.4657 114.219 78.9555C114.332 79.444 114.495 79.8773 114.707 80.2528C114.644 79.9771 114.613 79.7328 114.613 79.5188C114.613 79.0303 114.707 78.5852 114.895 78.1834C115.083 77.7829 115.352 77.4402 115.704 77.1592C116.055 76.8769 116.475 76.6616 116.963 76.5106C117.452 76.3596 118.003 76.2847 118.618 76.2847C118.83 76.2847 118.972 76.244 119.04 76.1626C119.109 76.0812 119.144 75.9157 119.144 75.6649V75.6663Z" fill="white"/>
<path d="M127.792 79.7663C127.792 80.092 127.704 80.4032 127.53 80.6973C127.354 80.9914 127.119 81.2514 126.825 81.4773C126.531 81.7031 126.185 81.8843 125.79 82.0222C125.395 82.16 124.972 82.2296 124.52 82.2296C124.069 82.2296 123.668 82.1732 123.279 82.0603C122.891 81.9473 122.552 81.7976 122.264 81.6086C121.976 81.4208 121.747 81.2041 121.578 80.9599C121.408 80.7157 121.324 80.4609 121.324 80.1983C121.324 79.9357 121.421 79.7282 121.616 79.5405C121.81 79.3527 122.12 79.2581 122.547 79.2581C122.547 79.7597 122.61 80.1865 122.734 80.5371C122.859 80.8877 123.019 81.1766 123.214 81.4024C123.408 81.6283 123.63 81.7911 123.881 81.8909C124.132 81.9907 124.382 82.0419 124.633 82.0419C124.871 82.0419 125.103 82.0012 125.329 81.9198C125.555 81.8383 125.752 81.7162 125.921 81.5534C126.091 81.3906 126.225 81.1962 126.326 80.9704C126.426 80.7445 126.475 80.4819 126.475 80.1812C126.475 79.8556 126.406 79.5602 126.269 79.2975C126.131 79.0336 125.953 78.7933 125.734 78.574C125.514 78.3548 125.263 78.1486 124.981 77.953C124.699 77.7586 124.407 77.5669 124.107 77.3791C123.806 77.1914 123.51 76.9997 123.223 76.8053C122.934 76.611 122.674 76.4009 122.443 76.1751C122.211 75.9492 122.025 75.7023 121.889 75.4318C121.751 75.1627 121.681 74.858 121.681 74.5206C121.681 74.2317 121.754 73.9625 121.898 73.7117C122.042 73.4609 122.242 73.2416 122.499 73.0539C122.757 72.8661 123.054 72.719 123.392 72.6114C123.731 72.505 124.095 72.4512 124.483 72.4512C124.872 72.4512 125.261 72.505 125.611 72.6114C125.962 72.7177 126.267 72.8622 126.524 73.0434C126.781 73.2259 126.981 73.4412 127.125 73.692C127.27 73.9428 127.342 74.212 127.342 74.5009C127.342 74.7517 127.245 74.971 127.051 75.1587C126.856 75.3465 126.546 75.441 126.12 75.441C126.12 74.5757 125.975 73.8929 125.688 73.3913C125.399 72.8897 124.998 72.6389 124.485 72.6389C124.046 72.6389 123.689 72.7768 123.413 73.0526C123.138 73.3283 123 73.6986 123 74.1621C123 74.4379 123.063 74.6913 123.187 74.9237C123.312 75.1561 123.479 75.3688 123.685 75.5632C123.893 75.7575 124.13 75.9453 124.399 76.1278C124.669 76.3103 124.948 76.4941 125.236 76.6819C125.55 76.8828 125.86 77.0863 126.167 77.2925C126.474 77.4999 126.747 77.7245 126.985 77.97C127.223 78.2143 127.417 78.4847 127.568 78.7789C127.719 79.073 127.794 79.4026 127.794 79.7663H127.792Z" fill="white"/>
<path d="M136.461 75.703C136.461 75.9407 136.389 76.1298 136.245 76.2676C136.1 76.4055 135.903 76.4751 135.652 76.4751H134.618C133.44 76.4751 132.509 76.7482 131.825 77.2931C131.141 77.8381 130.801 78.5813 130.801 79.5214C130.801 79.7342 130.823 79.9416 130.866 80.1425C130.91 80.3434 130.963 80.5443 131.026 80.7439C131.302 81.0945 131.625 81.365 131.995 81.5528C132.364 81.7405 132.782 81.8351 133.245 81.8351C133.584 81.8351 133.912 81.7812 134.233 81.6749C134.552 81.5685 134.85 81.4175 135.126 81.2232C135.402 81.0289 135.65 80.7977 135.869 80.5273C136.088 80.2581 136.26 79.96 136.386 79.6344H136.574C136.411 80.023 136.199 80.3776 135.935 80.6966C135.671 81.0157 135.381 81.2888 135.06 81.5147C134.741 81.7405 134.393 81.9165 134.016 82.0412C133.639 82.166 133.257 82.229 132.869 82.229C132.304 82.229 131.772 82.1003 131.271 81.843C130.769 81.5856 130.33 81.2376 129.955 80.7991C129.579 80.3605 129.281 79.8431 129.062 79.2483C128.843 78.6535 128.732 78.0167 128.732 77.3391C128.732 76.6616 128.841 76.026 129.062 75.4299C129.281 74.8351 129.579 74.3177 129.955 73.8792C130.33 73.4406 130.769 73.0926 131.271 72.8353C131.772 72.5779 132.305 72.4492 132.869 72.4492C133.357 72.4492 133.818 72.5372 134.251 72.7118C134.683 72.8878 135.065 73.1228 135.399 73.417C135.731 73.7111 135.991 74.0564 136.179 74.4517C136.367 74.8469 136.461 75.2631 136.461 75.7017V75.703ZM135.144 75.6663C135.144 75.2658 135.081 74.8797 134.956 74.5094C134.83 74.1405 134.665 73.8174 134.457 73.5404C134.251 73.2646 134.01 73.0454 133.734 72.8825C133.458 72.7197 133.169 72.6383 132.869 72.6383C132.48 72.6383 132.116 72.763 131.777 73.0138C131.439 73.2646 131.141 73.6034 130.885 74.0288C130.627 74.4556 130.424 74.9532 130.274 75.5231C130.124 76.0943 130.048 76.6983 130.048 77.3378C130.048 77.9274 130.105 78.4657 130.218 78.9555C130.33 79.444 130.493 79.8773 130.706 80.2528C130.643 79.9771 130.611 79.7328 130.611 79.5188C130.611 79.0303 130.706 78.5852 130.894 78.1834C131.082 77.7829 131.351 77.4402 131.703 77.1592C132.053 76.8769 132.473 76.6616 132.962 76.5106C133.45 76.3596 134.002 76.2847 134.616 76.2847C134.829 76.2847 134.971 76.244 135.039 76.1626C135.107 76.0812 135.143 75.9157 135.143 75.6649L135.144 75.6663Z" fill="white"/>
<path d="M139.038 74.0689C139.275 73.6054 139.627 73.2193 140.091 72.9121C140.554 72.6048 141.049 72.4512 141.576 72.4512C142.215 72.4512 142.738 72.5917 143.146 72.874C143.553 73.1563 143.757 73.5161 143.757 73.9546C143.757 74.2304 143.657 74.4694 143.456 74.669C143.255 74.8685 142.973 74.9696 142.611 74.9696C142.611 73.6027 142.096 72.9199 141.069 72.9199C140.63 72.9199 140.219 73.0736 139.837 73.3808C139.455 73.6881 139.189 74.0859 139.038 74.5744V79.2004C139.038 80.2416 139.11 80.9612 139.254 81.363C139.399 81.7648 139.646 81.9644 139.998 81.9644V82.0392H136.951V81.9644C137.127 81.9644 137.277 81.9171 137.403 81.8239C137.528 81.7294 137.629 81.577 137.704 81.363C137.778 81.1503 137.832 80.868 137.864 80.5174C137.895 80.1668 137.911 79.7282 137.911 79.2017V75.4791C137.911 74.9526 137.895 74.514 137.864 74.1634C137.832 73.8128 137.78 73.5305 137.704 73.3178C137.629 73.1051 137.528 72.9514 137.403 72.8569C137.277 72.7624 137.127 72.7164 136.951 72.7164V72.6416H138.099C138.725 72.6416 139.039 72.9554 139.039 73.5817V74.0702L139.038 74.0689Z" fill="white"/>
<path d="M148.873 81.4993C149.098 81.8131 149.381 81.9693 149.718 81.9693V82.0442H148.534C147.907 82.0442 147.506 81.7435 147.331 81.1421L145.713 75.4828C145.564 74.9693 145.419 74.5334 145.281 74.1762C145.143 73.8191 145.006 73.5342 144.868 73.3201C144.73 73.1074 144.585 72.9538 144.436 72.8592C144.286 72.7647 144.122 72.7187 143.947 72.7187V72.6439H145.132C145.771 72.6439 146.172 72.9446 146.334 73.546L147.952 79.2053C148.09 79.6938 148.221 80.1114 148.347 80.4554C148.472 80.8007 148.605 81.0791 148.743 81.2918L150.417 75.4814C150.943 73.6392 150.893 72.7174 150.266 72.7174V72.6426H152.372V72.7174C152.196 72.7174 152.033 72.7647 151.883 72.8579C151.734 72.9525 151.585 73.1061 151.441 73.3188C151.297 73.5315 151.159 73.8178 151.027 74.1749C150.896 74.5321 150.754 74.968 150.605 75.4814L148.875 81.4993H148.873Z" fill="white"/>
<path d="M159.531 75.703C159.531 75.9407 159.459 76.1298 159.315 76.2676C159.17 76.4055 158.973 76.4751 158.723 76.4751H157.688C156.51 76.4751 155.579 76.7482 154.895 77.2931C154.212 77.8381 153.871 78.5813 153.871 79.5214C153.871 79.7342 153.893 79.9416 153.936 80.1425C153.98 80.3434 154.034 80.5443 154.097 80.7439C154.372 81.0945 154.695 81.365 155.066 81.5528C155.435 81.7405 155.852 81.8351 156.316 81.8351C156.655 81.8351 156.983 81.7812 157.303 81.6749C157.622 81.5685 157.92 81.4175 158.196 81.2232C158.472 81.0289 158.719 80.7977 158.939 80.5273C159.159 80.2581 159.331 79.96 159.457 79.6344H159.644C159.482 80.023 159.269 80.3776 159.005 80.6966C158.742 81.0157 158.451 81.2888 158.13 81.5147C157.811 81.7405 157.463 81.9165 157.087 82.0412C156.711 82.166 156.328 82.229 155.939 82.229C155.374 82.229 154.841 82.1003 154.341 81.843C153.839 81.5856 153.401 81.2376 153.025 80.7991C152.65 80.3605 152.352 79.8431 152.132 79.2483C151.913 78.6535 151.803 78.0167 151.803 77.3391C151.803 76.6616 151.912 76.026 152.132 75.4299C152.352 74.8351 152.65 74.3177 153.025 73.8792C153.401 73.4406 153.841 73.0926 154.341 72.8353C154.842 72.5779 155.376 72.4492 155.939 72.4492C156.427 72.4492 156.888 72.5372 157.322 72.7118C157.754 72.8878 158.137 73.1228 158.469 73.417C158.801 73.7111 159.061 74.0564 159.249 74.4517C159.437 74.8469 159.531 75.2631 159.531 75.7017V75.703ZM158.216 75.6663C158.216 75.2658 158.153 74.8797 158.028 74.5094C157.903 74.1405 157.737 73.8174 157.53 73.5404C157.323 73.2646 157.081 73.0454 156.807 72.8825C156.531 72.7197 156.242 72.6383 155.942 72.6383C155.553 72.6383 155.189 72.763 154.85 73.0138C154.512 73.2646 154.214 73.6034 153.957 74.0288C153.7 74.4556 153.497 74.9532 153.347 75.5231C153.196 76.0943 153.121 76.6983 153.121 77.3378C153.121 77.9274 153.178 78.4657 153.29 78.9555C153.403 79.4453 153.566 79.8773 153.779 80.2528C153.716 79.9771 153.684 79.7328 153.684 79.5188C153.684 79.0303 153.779 78.5852 153.967 78.1834C154.154 77.7829 154.424 77.4402 154.776 77.1592C155.126 76.8769 155.546 76.6616 156.036 76.5106C156.525 76.3596 157.076 76.2847 157.691 76.2847C157.903 76.2847 158.045 76.244 158.113 76.1626C158.182 76.0812 158.217 75.9157 158.217 75.6649L158.216 75.6663Z" fill="white"/>
<path d="M58.5759 14.0262C58.7519 14.0262 58.9016 13.979 59.0276 13.8857C59.1524 13.7912 59.2535 13.6389 59.3283 13.4248C59.4032 13.2121 59.457 12.9298 59.4885 12.5792C59.52 12.2286 59.5358 11.7901 59.5358 11.2635V1.12658C58.5208 1.13971 57.7185 1.39314 57.1289 1.88817C56.5393 2.3832 56.2006 3.02004 56.1139 3.79607H56.0391L56.2268 0.9375H64.1617L64.3495 3.79607H64.2747C64.1867 3.01872 63.8479 2.3832 63.2597 1.88817C62.6701 1.39314 61.8678 1.13971 60.8528 1.12658V11.2622C60.8528 12.3022 60.925 13.023 61.0695 13.4248C61.2139 13.8266 61.4608 14.0262 61.8127 14.0262V14.1011H58.5785V14.0262H58.5759Z" fill="white"/>
<path d="M66.8143 6.12812C67.0651 5.63966 67.438 5.24705 67.9331 4.95292C68.4281 4.65879 68.9389 4.51041 69.4654 4.51041C69.728 4.51041 69.9788 4.55506 70.2178 4.64172C70.4555 4.7297 70.6695 4.86757 70.8573 5.05534C71.045 5.24311 71.1921 5.48734 71.2998 5.78935C71.4061 6.09004 71.46 6.45377 71.46 6.88052V11.2622C71.46 12.3022 71.5322 13.0231 71.6766 13.4249C71.8211 13.8267 72.0679 14.0263 72.4198 14.0263V14.1011H69.3735V14.0263C69.5495 14.0263 69.6991 13.979 69.8252 13.8858C69.9499 13.7912 70.051 13.6389 70.1259 13.4249C70.2007 13.2122 70.2546 12.9299 70.2861 12.5793C70.3176 12.2287 70.3334 11.7901 70.3334 11.2636V7.10768C70.3334 6.43013 70.2047 5.90753 69.9473 5.53724C69.69 5.16827 69.3367 4.98312 68.885 4.98312C68.4714 4.98312 68.0644 5.13675 67.6626 5.44401C67.2608 5.75127 66.9798 6.14913 66.8169 6.6376V11.2636C66.8169 12.3035 66.8892 13.0244 67.0336 13.4262C67.178 13.828 67.4249 14.0276 67.7768 14.0276V14.1024H64.7305V14.0276C64.9064 14.0276 65.0561 13.9803 65.1822 13.8871C65.3069 13.7925 65.408 13.6402 65.4829 13.4262C65.5577 13.2135 65.6115 12.9312 65.6431 12.5806C65.6746 12.23 65.6903 11.7914 65.6903 11.2649V2.83756C65.6903 2.31101 65.6746 1.87245 65.6431 1.52185C65.6115 1.17126 65.559 0.888952 65.4829 0.676234C65.408 0.463516 65.3069 0.309886 65.1822 0.215344C65.0561 0.120803 64.9064 0.0748453 64.7305 0.0748453V0H65.8781C66.5044 0 66.8183 0.313825 66.8183 0.940162V6.12944L66.8143 6.12812Z" fill="white"/>
<path d="M80.704 7.76488C80.704 8.00255 80.6318 8.19163 80.4874 8.3295C80.3429 8.46738 80.146 8.53566 79.8952 8.53566H78.8605C77.6813 8.53566 76.7517 8.80877 76.0675 9.3537C75.3847 9.89863 75.0433 10.6418 75.0433 11.582C75.0433 11.7947 75.0657 12.0022 75.109 12.2031C75.1523 12.404 75.2062 12.6049 75.2692 12.8045C75.5449 13.1551 75.868 13.4255 76.2382 13.6133C76.6072 13.8011 77.0248 13.8956 77.4883 13.8956C77.8271 13.8956 78.1553 13.8431 78.4757 13.7354C78.7948 13.6291 79.0929 13.4781 79.3686 13.2837C79.6444 13.0894 79.8925 12.8583 80.1118 12.5878C80.3311 12.3186 80.5031 12.0206 80.6292 11.6949H80.8169C80.6541 12.0836 80.4414 12.4381 80.1775 12.7572C79.9149 13.0763 79.6233 13.3494 79.303 13.5752C78.9826 13.8011 78.6359 13.977 78.2591 14.1018C77.8835 14.2265 77.5001 14.2896 77.1128 14.2896C76.5481 14.2896 76.015 14.1609 75.5147 13.9035C75.0131 13.6461 74.5746 13.2982 74.199 12.8596C73.8235 12.421 73.5254 11.9037 73.3061 11.3089C73.0869 10.714 72.9766 10.0772 72.9766 9.39966C72.9766 8.72211 73.0855 8.08658 73.3061 7.49045C73.5254 6.89562 73.8235 6.37827 74.199 5.93971C74.5746 5.50114 75.0131 5.15317 75.5147 4.89581C76.0163 4.63845 76.5494 4.50977 77.1128 4.50977C77.6012 4.50977 78.0621 4.59774 78.4954 4.77238C78.9274 4.94833 79.3095 5.18337 79.6417 5.4775C79.9739 5.77163 80.2339 6.11697 80.4217 6.51221C80.6095 6.90744 80.704 7.32369 80.704 7.76225V7.76488ZM79.3883 7.72811C79.3883 7.32763 79.3253 6.94158 79.2005 6.57129C79.0745 6.20232 78.909 5.8793 78.7029 5.60224C78.4954 5.3265 78.2551 5.10722 77.9794 4.94439C77.7036 4.78157 77.4148 4.70016 77.1141 4.70016C76.7254 4.70016 76.3617 4.82622 76.0229 5.0757C75.6841 5.3265 75.3861 5.66527 75.13 6.09071C74.8726 6.51746 74.6691 7.01511 74.5194 7.58499C74.3684 8.15618 74.2936 8.76019 74.2936 9.39966C74.2936 9.98923 74.35 10.5276 74.463 11.0174C74.5759 11.5058 74.7387 11.9391 74.9514 12.3147C74.8884 12.0389 74.8569 11.7947 74.8569 11.5807C74.8569 11.0922 74.9514 10.6471 75.1392 10.2453C75.327 9.84479 75.5961 9.50208 75.9481 9.22108C76.2986 8.93877 76.7188 8.72343 77.2073 8.57242C77.6958 8.42142 78.2472 8.34657 78.8618 8.34657C79.0745 8.34657 79.2163 8.30587 79.2846 8.22446C79.3529 8.14305 79.3883 7.9776 79.3883 7.7268V7.72811Z" fill="white"/>
<path d="M20.1621 101.06V94.6387H22.4679C23.9372 94.6387 24.5688 95.2611 24.5688 96.2341C24.5688 96.7987 24.2287 97.3436 23.4212 97.5668C24.209 97.8006 24.7447 98.3652 24.7447 99.1819C24.7447 99.9986 24.297 101.06 22.4876 101.06H20.1621ZM20.8633 97.3134H22.3221C23.3437 97.3134 23.8794 96.9917 23.8794 96.3115C23.8794 95.5723 23.3936 95.2506 22.3904 95.2506H20.8633V97.3134ZM20.8633 100.446H22.4206C23.6956 100.446 24.0449 99.7846 24.0449 99.1425C24.0449 98.5004 23.6076 97.8675 22.3523 97.8675H20.8633V100.446Z" fill="white"/>
<path d="M27.5562 101.255C27.828 101.625 28.5869 101.722 28.9086 101.069L29.2001 100.436L27.283 96.127H27.9737L29.5494 99.8627L31.3102 96.127H32.0009L29.4522 101.244C28.8981 102.363 27.7492 102.275 27.1465 101.643L27.5549 101.255H27.5562Z" fill="white"/>
<path d="M39.1211 101.031V94.6387H43.3636V95.3202H39.8223V97.5288H43.0327V98.142H39.8223V100.341H43.3439V101.032H39.1211V101.031Z" fill="white"/>
<path d="M46.1113 101.06V94.6387H46.8112V101.06H46.1113Z" fill="white"/>
<path d="M49.5547 98.6101C49.5547 96.9753 50.7614 96.0312 52.1231 96.0312C53.4847 96.0312 54.5654 96.8874 54.6822 98.4828V98.7848L50.2165 98.794C50.2939 99.8444 51.238 100.565 52.1231 100.574C52.7849 100.574 53.4755 100.254 53.8261 99.6212L54.3619 99.9035C53.9246 100.702 53.0685 101.159 52.1244 101.159C50.7627 101.159 49.556 100.089 49.556 98.6101H49.5547ZM54.0205 98.3475C53.9141 97.2577 53.0278 96.6064 52.1231 96.6064C51.2184 96.6064 50.3517 97.2577 50.2651 98.3475H54.0205Z" fill="white"/>
<path d="M58.7307 101.06L56.5996 96.127H57.2995L59.0511 100.242L60.7923 96.127H61.4829L59.3623 101.06H58.7294H58.7307Z" fill="white"/>
<path d="M63.6439 98.6194C63.6439 97.0043 64.7232 96.0221 66.1348 96.0313C67.0986 96.0313 67.9639 96.5762 68.304 97.3838V96.1285H69.0039V101.062H68.3132V99.7775C67.9823 100.585 67.1065 101.159 66.1624 101.159C64.7324 101.168 63.6426 100.049 63.6426 98.6194H63.6439ZM68.2843 98.6194C68.2843 97.3641 67.3205 96.6248 66.2989 96.6156C65.2682 96.6156 64.3333 97.2866 64.3333 98.6194C64.3333 99.767 65.2774 100.565 66.2989 100.565C67.3297 100.556 68.2843 99.7578 68.2843 98.6194Z" fill="white"/>
<path d="M75.3052 100.903C74.2062 101.4 72.5911 100.923 72.5911 99.2791V96.7107H71.7441V96.0975C72.7171 96.0975 72.5911 95.5132 72.5911 94.6387H73.2818L73.2909 96.0975H74.9257V96.7107H73.2818V99.2213C73.2818 100.302 74.3125 100.7 75.1503 100.311L75.3065 100.905L75.3052 100.903Z" fill="white"/>
<path d="M77.4863 98.6101C77.4863 96.9753 78.693 96.0312 80.0547 96.0312C81.4164 96.0312 82.497 96.8874 82.6139 98.4828V98.7848L78.1481 98.794C78.2256 99.8444 79.1697 100.565 80.0547 100.574C80.7165 100.574 81.4072 100.254 81.7578 99.6212L82.2935 99.9035C81.8562 100.702 81.0001 101.159 80.056 101.159C78.6944 101.159 77.4876 100.089 77.4876 98.6101H77.4863ZM81.9521 98.3475C81.8457 97.2577 80.9594 96.6064 80.0547 96.6064C79.15 96.6064 78.2834 97.2577 78.1967 98.3475H81.9521Z" fill="white"/>
<path d="M89.7363 101.06V94.6387H90.4362V97.5668H93.6467V94.6387H94.3465V101.06H93.6467V98.18H90.4362V101.06H89.7363Z" fill="white"/>
<path d="M97.0918 98.6193C97.0918 97.0436 98.2499 96.0312 99.7376 96.0312C101.225 96.0312 102.414 97.0436 102.414 98.6193C102.404 100.069 101.266 101.159 99.7376 101.159C98.2092 101.159 97.101 100.069 97.0918 98.6193ZM101.723 98.6193C101.723 97.4034 100.828 96.6156 99.7376 96.6156C98.6478 96.6156 97.7825 97.3548 97.7825 98.6193C97.7825 99.7381 98.7069 100.565 99.7285 100.565C100.75 100.565 101.723 99.7971 101.723 98.6193Z" fill="white"/>
<path d="M105.16 101.06V94.6387H105.86V101.06H105.16Z" fill="white"/>
<path d="M108.603 98.6167C108.603 97.0016 109.682 96.0194 111.094 96.0286C112.058 96.0286 112.923 96.5735 113.263 97.381V94.6367H113.963V101.058H113.272V99.7735C112.941 100.581 112.065 101.155 111.121 101.155C109.691 101.164 108.602 100.045 108.602 98.6153L108.603 98.6167ZM113.243 98.6167C113.243 97.3417 112.279 96.6221 111.258 96.6129C110.227 96.6129 109.292 97.2839 109.292 98.6167C109.292 99.7643 110.236 100.563 111.258 100.563C112.289 100.553 113.243 99.7551 113.243 98.6167Z" fill="white"/>
<path d="M116.709 94.9816C116.709 94.7584 116.923 94.6113 117.157 94.6113C117.39 94.6113 117.594 94.7571 117.594 94.9816C117.594 95.2062 117.389 95.3519 117.157 95.3519C116.924 95.3519 116.709 95.1956 116.709 94.9816ZM116.807 101.062V96.1292H117.498V101.062H116.807Z" fill="white"/>
<path d="M120.337 101.062V96.1285H121.037V97.3838C121.377 96.5762 122.244 96.0313 123.206 96.0313C124.617 96.0221 125.697 97.0043 125.697 98.6194V101.062H124.997L125.007 98.6194C125.016 97.2866 124.073 96.6156 123.041 96.6156C122.019 96.6248 121.056 97.3457 121.056 98.6194V101.062H120.336H120.337Z" fill="white"/>
<path d="M128.171 101.888C128.142 101.158 128.707 100.661 129.261 100.467C128.989 100.341 128.853 100.195 128.862 99.9022C128.871 99.6107 129.076 99.3284 129.416 99.134C128.871 98.8714 128.569 98.3554 128.569 97.7724C128.569 96.693 129.337 96.0312 130.632 96.0312C131.069 96.0312 131.352 96.089 131.547 96.1192H133.006V96.6642H132.141C132.462 96.869 132.646 97.3456 132.646 97.7343C132.646 98.7756 131.868 99.4374 130.603 99.4374C130.321 99.4374 130.078 99.398 129.941 99.3796C129.601 99.5542 129.416 99.7788 129.416 99.9823C129.425 100.322 129.805 100.362 130.175 100.362H131.157C132.353 100.362 133.191 100.838 133.171 101.84C133.143 102.862 132.247 103.358 130.632 103.358C129.105 103.358 128.2 102.822 128.17 101.889L128.171 101.888ZM132.52 101.868C132.54 101.186 132.063 100.846 131.031 100.846H130.184C129.465 100.846 128.792 101.217 128.823 101.888C128.851 102.52 129.455 102.821 130.612 102.821C131.839 102.821 132.51 102.481 132.519 101.868H132.52ZM132.015 97.733C132.015 97.0423 131.518 96.6143 130.614 96.6143C129.709 96.6143 129.213 97.0331 129.213 97.7619C129.213 98.4526 129.68 98.8609 130.614 98.8609C131.547 98.8609 132.015 98.4526 132.015 97.733Z" fill="white"/>
<path d="M135.567 99.4649H136.218C136.276 100.321 136.88 100.584 137.58 100.623C138.174 100.652 138.776 100.321 138.796 99.7867C138.816 99.2023 138.426 98.9988 137.512 98.8531C136.344 98.6679 135.605 98.3856 135.585 97.4612C135.566 96.5959 136.316 96.0312 137.415 96.0312C138.611 96.0312 139.38 96.5959 139.467 97.666H138.825C138.757 97.0042 138.251 96.5762 137.433 96.567C136.742 96.5578 136.255 96.9557 136.255 97.4809C136.264 98.0166 136.654 98.2398 137.568 98.3948C138.892 98.6285 139.475 98.9003 139.466 99.8155C139.446 100.681 138.667 101.188 137.579 101.159C136.401 101.13 135.584 100.508 135.564 99.4663L135.567 99.4649Z" fill="white"/>
</g>
<defs>
<clipPath id="clip0_248_347">
<rect width="159.648" height="103.357" fill="white"/>
</clipPath>
</defs>
</svg>
