<svg width="111" height="72" viewBox="0 0 111 72" fill="none" xmlns="http://www.w3.org/2000/svg">
<g clip-path="url(#clip0_481_183)">
<path d="M36.0765 5.52163C36.1997 5.63799 36.3713 5.66162 36.5282 5.69708L36.6176 5.99706L34.8692 6.87156C34.7999 5.46436 33.0031 3.86444 31.6425 3.77081C24.9873 3.30992 25.1716 10.8695 24.9416 14.6412C24.3759 23.9062 24.9471 33.2775 24.5155 42.5388C26.795 48.464 31.8779 53.9428 38.7411 53.6747C39.4511 53.6474 40.881 53.1938 41.362 53.2283C41.4842 53.2374 41.5883 53.2629 41.6604 53.3692L41.7124 53.9474C41.6385 54.0555 39.494 54.4846 39.1563 54.5264C28.4805 55.8373 24.5365 48.5167 20.4948 40.4471C15.4968 30.4695 10.5992 20.3682 5.85306 10.2696C5.75724 10.0659 5.68606 9.8605 5.6888 9.63324C5.43511 9.5987 5.551 9.96322 5.54462 10.1396C5.20697 18.7928 5.63222 27.6541 5.6961 36.2955C5.71709 39.1481 6.08302 48.5922 5.13397 51.1402C4.33093 53.2956 2.37991 54.79 0 54.6728L0.00273763 54.2428C4.35831 52.2693 4.33002 49.8721 4.52074 47.0414C5.25443 36.1446 4.53808 20.4836 4.82097 9.55415C4.87481 8.79692 4.33458 8.3633 4.08637 7.74424C5.01899 7.83606 7.08043 7.04246 7.7402 7.84788L18.8413 31.0494L23.78 40.8789L23.7873 28.4477C23.727 23.0198 24.0729 16.1284 24.3056 10.7095C24.5009 6.14523 27.379 1.45184 33.0104 3.27356C34.7497 3.83899 34.9212 4.42714 36.0774 5.52163H36.0765Z" fill="#644E23" fill-opacity="0.933333"/>
<path d="M67.268 12.6465V30.0529H77.5798C77.4785 28.7339 77.6783 27.3903 77.6856 26.0885C77.7048 22.4287 77.9083 17.6017 77.5862 13.9964C77.5396 13.4792 77.4064 13.0901 77.1509 12.6465H80.1586V45.3903C80.1586 45.5348 80.5191 45.9194 80.4452 46.1748H77.7951L77.5086 30.6238H67.268V46.1748H64.9045L64.6901 45.9612V30.6238L63.5439 30.5519V30.0538H64.6901V12.6474H67.268V12.6465Z" fill="#644E23" fill-opacity="0.933333"/>
<path d="M37.2623 12.6451C37.7678 12.7569 38.3218 13.4487 38.3573 13.9804C40.667 23.879 42.0185 34.0322 44.3956 43.918C44.5873 44.7162 44.7223 45.4943 45.2105 46.1734H41.773C42.4766 43.9362 41.2893 41.3163 40.9736 39.031L31.0324 39.041L29.878 46.1652L29.1689 46.1734C29.398 44.5471 29.6353 42.9072 29.9245 41.29C31.5644 32.1032 33.6614 22.9509 34.897 13.7168L34.6123 12.6451C35.3752 12.7587 36.5624 12.4905 37.2623 12.6451ZM40.9152 38.4692L35.7602 13.6441L31.3371 37.7029L31.3198 38.4701C31.4594 38.3565 31.5881 38.4692 31.6766 38.4692H40.9143H40.9152Z" fill="#644E23" fill-opacity="0.933333"/>
<path d="M110.951 46.1748H107.514C107.84 45.5466 107.866 44.9603 107.798 44.2503C107.642 42.605 106.922 40.7405 106.791 39.0479L96.9974 39.0324L95.7409 45.933L95.5383 46.1584L95.0537 46.1748L100.714 14.6482L100.352 12.6465H103.002C103.134 12.6465 103.804 13.1192 103.915 13.3055C104.124 13.6546 104.334 14.7409 104.441 15.2073C106.576 24.5541 107.875 34.1354 109.993 43.4904C110.205 44.4258 110.327 45.4048 110.951 46.1739V46.1748ZM97.273 38.4706H106.654L101.712 13.6446L97.273 38.4706Z" fill="#644E23" fill-opacity="0.933333"/>
<path d="M66.551 12.6465V13.7864C64.5626 13.3728 56.5504 13.2646 54.5209 13.3601V45.9612L54.3065 46.1748H51.943V13.3601C49.919 13.2901 47.9123 13.4028 45.9284 13.7882L45.7852 12.6465H66.5519H66.551Z" fill="#644E23" fill-opacity="0.933333"/>
<path d="M90.8985 12.6465H88.4639V46.1748H90.8985V12.6465Z" fill="#644E23" fill-opacity="0.933333"/>
<path d="M76.2808 54.8336C76.0453 54.2609 75.8428 53.8101 75.673 53.4801C75.5033 53.1501 75.3244 52.901 75.1374 52.7319C74.9503 52.5628 74.7304 52.4547 74.4776 52.4065C74.2248 52.3592 73.8981 52.3347 73.4975 52.3347V54.8346C73.4975 55.5554 73.5477 56.0536 73.6481 56.3317C73.7485 56.6099 73.92 56.7481 74.1646 56.7481V56.7999H71.917V56.7481C72.0393 56.7481 72.1433 56.7154 72.2309 56.6508C72.3176 56.5854 72.3879 56.4799 72.4399 56.3317C72.4919 56.1845 72.5293 55.989 72.5512 55.7463C72.5731 55.5036 72.5841 55.2 72.5841 54.8355V49.6539C72.5841 49.2894 72.5731 48.9858 72.5512 48.743C72.5293 48.5003 72.4928 48.3049 72.4399 48.1576C72.3879 48.0103 72.3176 47.904 72.2309 47.8385C72.1433 47.7731 72.0393 47.7413 71.917 47.7413V47.6895H74.4C74.8444 47.6895 75.2496 47.7458 75.6155 47.8585C75.9815 47.9713 76.299 48.1322 76.5691 48.3403C76.8393 48.5485 77.0482 48.7939 77.1961 49.0757C77.3439 49.3576 77.4178 49.6684 77.4178 50.0066C77.4178 50.3102 77.3567 50.5948 77.2353 50.8593C77.113 51.1238 76.9433 51.3565 76.7252 51.5556C76.5071 51.7556 76.2461 51.9202 75.9413 52.0501C75.6365 52.1801 75.3007 52.2674 74.9348 52.3101C75.1958 52.3619 75.4248 52.4429 75.621 52.551C75.8172 52.6592 76.0024 52.811 76.1767 53.0065C76.351 53.2019 76.5253 53.4492 76.6996 53.7482C76.8739 54.0473 77.0701 54.41 77.2873 54.8355L77.3913 55.0436C77.7135 55.6772 77.9818 56.1199 78.1953 56.3717C78.4088 56.6235 78.6333 56.749 78.8687 56.749V56.8008H77.7445C77.3174 56.8008 77.0208 56.6008 76.8557 56.2018L76.2808 54.8346V54.8336ZM74.3471 52.2038C74.6428 52.2038 74.9156 52.1501 75.1638 52.0411C75.412 51.9329 75.6256 51.7811 75.8044 51.5856C75.9833 51.3902 76.122 51.1584 76.2224 50.8893C76.3228 50.6202 76.3729 50.3257 76.3729 50.0039C76.3729 49.6821 76.3228 49.3876 76.2224 49.1185C76.122 48.8494 75.9824 48.6194 75.8044 48.4285C75.6256 48.2376 75.412 48.0876 75.1638 47.9794C74.9156 47.8713 74.6428 47.8167 74.3471 47.8167H73.4975V52.2038H74.3471Z" fill="#644E23" fill-opacity="0.933333"/>
<path d="M83.7169 52.4089C83.7169 52.5734 83.6667 52.7043 83.5664 52.7997C83.466 52.8952 83.3291 52.9434 83.1548 52.9434H82.4357C81.6172 52.9434 80.9702 53.1325 80.4947 53.5097C80.0202 53.887 79.783 54.4015 79.783 55.0524C79.783 55.1996 79.7985 55.3433 79.8286 55.4823C79.8587 55.6214 79.8961 55.7605 79.9399 55.8987C80.1316 56.1414 80.356 56.3287 80.6134 56.4587C80.8698 56.5886 81.16 56.6541 81.4821 56.6541C81.7176 56.6541 81.9457 56.6168 82.1683 56.5432C82.3901 56.4696 82.5972 56.365 82.7889 56.2305C82.9805 56.096 83.153 55.936 83.3054 55.7487C83.4578 55.5623 83.5773 55.356 83.6649 55.1305H83.7954C83.6823 55.3996 83.5344 55.6451 83.351 55.866C83.1685 56.0869 82.9659 56.2759 82.7433 56.4323C82.5215 56.5887 82.2797 56.7105 82.0178 56.7968C81.7568 56.8832 81.4903 56.9268 81.2202 56.9268C80.8278 56.9268 80.4573 56.8377 80.1097 56.6596C79.7611 56.4814 79.4563 56.2405 79.1953 55.9369C78.9343 55.6332 78.7271 55.2751 78.5748 54.8633C78.4224 54.4515 78.3457 54.0106 78.3457 53.5415C78.3457 53.0725 78.4214 52.6325 78.5748 52.2198C78.7271 51.808 78.9343 51.4498 79.1953 51.1462C79.4563 50.8426 79.7611 50.6017 80.1097 50.4235C80.4582 50.2453 80.8287 50.1562 81.2202 50.1562C81.5597 50.1562 81.88 50.2172 82.1811 50.3381C82.4814 50.4599 82.7469 50.6226 82.9787 50.8262C83.2096 51.0298 83.3902 51.2689 83.5207 51.5425C83.6512 51.8162 83.7169 52.1043 83.7169 52.408V52.4089ZM82.8017 52.3834C82.8017 52.1062 82.7579 51.8389 82.6712 51.5825C82.5845 51.3271 82.4686 51.1035 82.3253 50.9117C82.1811 50.7208 82.0141 50.569 81.8225 50.4562C81.6309 50.3435 81.4301 50.2872 81.2211 50.2872C80.951 50.2872 80.6982 50.3735 80.4628 50.5471C80.2274 50.7208 80.0202 50.9553 79.8423 51.2498C79.6634 51.5453 79.522 51.8898 79.4179 52.2843C79.313 52.6798 79.261 53.0979 79.261 53.5406C79.261 53.9488 79.3002 54.3215 79.3787 54.6606C79.4572 54.9987 79.5703 55.2987 79.7182 55.5587C79.6744 55.3678 79.6525 55.1987 79.6525 55.0505C79.6525 54.7124 79.7182 54.4042 79.8487 54.126C79.9792 53.8488 80.1662 53.6115 80.4108 53.417C80.6544 53.2215 80.9465 53.0725 81.2859 52.9679C81.6254 52.8634 82.0087 52.8116 82.4357 52.8116C82.5836 52.8116 82.6821 52.7834 82.7296 52.727C82.777 52.6707 82.8017 52.5561 82.8017 52.3825V52.3834Z" fill="#644E23" fill-opacity="0.933333"/>
<path d="M88.8116 55.2225C88.8116 55.4479 88.7505 55.6634 88.6291 55.867C88.5068 56.0706 88.3435 56.2506 88.1391 56.407C87.9346 56.5633 87.6946 56.6888 87.42 56.7842C87.1453 56.8797 86.8515 56.9279 86.5375 56.9279C86.2236 56.9279 85.9453 56.8888 85.6752 56.8106C85.4051 56.7324 85.1696 56.6288 84.9698 56.4979C84.769 56.3679 84.6102 56.2179 84.4925 56.0488C84.3748 55.8797 84.3164 55.7034 84.3164 55.5216C84.3164 55.3398 84.3839 55.1961 84.519 55.0661C84.6541 54.9361 84.8694 54.8707 85.166 54.8707C85.166 55.2179 85.2098 55.5134 85.2965 55.7561C85.3832 55.9988 85.4945 56.1988 85.6296 56.3552C85.7646 56.5115 85.9188 56.6242 86.0931 56.6933C86.2674 56.7624 86.4417 56.7979 86.616 56.7979C86.7812 56.7979 86.9427 56.7697 87.0997 56.7133C87.2566 56.657 87.3935 56.5724 87.5112 56.4597C87.6289 56.347 87.722 56.2124 87.7923 56.0561C87.8616 55.8997 87.8963 55.7179 87.8963 55.5098C87.8963 55.2843 87.848 55.0798 87.753 54.898C87.6572 54.7152 87.5331 54.5489 87.3807 54.3971C87.2283 54.2453 87.054 54.1025 86.8578 53.9671C86.6616 53.8326 86.4591 53.6998 86.2501 53.5698C86.0411 53.4399 85.8358 53.3071 85.6359 53.1726C85.4352 53.0381 85.2545 52.8926 85.0939 52.7363C84.9324 52.5799 84.8037 52.409 84.7088 52.2217C84.613 52.0354 84.5646 51.8245 84.5646 51.5909C84.5646 51.3909 84.6148 51.2045 84.7152 51.0309C84.8156 50.8573 84.9543 50.7054 85.1331 50.5755C85.312 50.4455 85.5182 50.3436 85.7537 50.2691C85.9891 50.1955 86.2419 50.1582 86.512 50.1582C86.7821 50.1582 87.0522 50.1955 87.2959 50.2691C87.5395 50.3427 87.7512 50.4427 87.9301 50.5682C88.1089 50.6945 88.2476 50.8436 88.348 51.0172C88.4484 51.1909 88.4986 51.3772 88.4986 51.5772C88.4986 51.7508 88.4311 51.9027 88.296 52.0327C88.161 52.1626 87.9456 52.2281 87.649 52.2281C87.649 51.629 87.5486 51.1563 87.3488 50.8091C87.148 50.4618 86.8697 50.2882 86.5129 50.2882C86.2081 50.2882 85.9599 50.3836 85.7683 50.5745C85.5766 50.7654 85.4808 51.0218 85.4808 51.3427C85.4808 51.5336 85.5246 51.709 85.6113 51.8699C85.698 52.0308 85.8139 52.1781 85.9572 52.3126C86.1013 52.4472 86.2665 52.5772 86.4536 52.7035C86.6407 52.8299 86.835 52.9571 87.0349 53.0871C87.253 53.2262 87.4683 53.3671 87.6819 53.5099C87.8954 53.6535 88.0852 53.8089 88.2504 53.9789C88.4156 54.148 88.5506 54.3353 88.6556 54.5389C88.7605 54.7425 88.8125 54.9707 88.8125 55.2225H88.8116Z" fill="#644E23" fill-opacity="0.933333"/>
<path d="M94.8361 52.4089C94.8361 52.5734 94.7859 52.7043 94.6855 52.7997C94.5851 52.8952 94.4482 52.9434 94.2739 52.9434H93.5549C92.7363 52.9434 92.0893 53.1325 91.6139 53.5097C91.1384 53.887 90.9021 54.4015 90.9021 55.0524C90.9021 55.1996 90.9176 55.3433 90.9477 55.4823C90.9778 55.6214 91.0153 55.7605 91.0591 55.8987C91.2507 56.1414 91.4752 56.3287 91.7325 56.4587C91.9889 56.5886 92.2791 56.6541 92.6013 56.6541C92.8367 56.6541 93.0648 56.6168 93.2875 56.5432C93.5092 56.4696 93.7164 56.365 93.908 56.2305C94.0996 56.096 94.2721 55.936 94.4245 55.7487C94.5769 55.5623 94.6964 55.356 94.7841 55.1305H94.9146C94.8014 55.3996 94.6536 55.6451 94.4701 55.866C94.2867 56.0869 94.085 56.2759 93.8624 56.4323C93.6406 56.5887 93.3988 56.7105 93.1369 56.7968C92.875 56.8832 92.6095 56.9268 92.3394 56.9268C91.947 56.9268 91.5774 56.8377 91.2288 56.6596C90.8802 56.4814 90.5754 56.2405 90.3144 55.9369C90.0534 55.6332 89.8463 55.2751 89.6939 54.8633C89.5415 54.4515 89.4648 54.0106 89.4648 53.5415C89.4648 53.0725 89.5406 52.6325 89.6939 52.2198C89.8463 51.808 90.0534 51.4498 90.3144 51.1462C90.5754 50.8426 90.8802 50.6017 91.2288 50.4235C91.5774 50.2453 91.9479 50.1562 92.3394 50.1562C92.6788 50.1562 92.9991 50.2172 93.3003 50.3381C93.6005 50.4599 93.866 50.6226 94.0978 50.8262C94.3287 51.0298 94.5094 51.2689 94.6399 51.5425C94.7704 51.8162 94.8361 52.1043 94.8361 52.408V52.4089ZM93.9208 52.3834C93.9208 52.1062 93.877 51.8389 93.7903 51.5825C93.7027 51.3271 93.5877 51.1035 93.4435 50.9117C93.3003 50.7208 93.1324 50.569 92.9407 50.4562C92.7491 50.3435 92.5483 50.2872 92.3394 50.2872C92.0692 50.2872 91.8165 50.3735 91.581 50.5471C91.3456 50.7208 91.1384 50.9553 90.9605 51.2498C90.7816 51.5453 90.6402 51.8898 90.5362 52.2843C90.4321 52.6798 90.3792 53.0979 90.3792 53.5406C90.3792 53.9488 90.4185 54.3215 90.4969 54.6606C90.5754 54.9987 90.6886 55.2987 90.8364 55.5587C90.7926 55.3678 90.7707 55.1987 90.7707 55.0505C90.7707 54.7124 90.8364 54.4042 90.9669 54.126C91.0974 53.8488 91.2845 53.6115 91.529 53.417C91.7727 53.2215 92.0647 53.0725 92.4041 52.9679C92.7436 52.8634 93.1269 52.8116 93.5539 52.8116C93.7018 52.8116 93.8003 52.7834 93.8478 52.727C93.8952 52.6707 93.9199 52.5561 93.9199 52.3825L93.9208 52.3834Z" fill="#644E23" fill-opacity="0.933333"/>
<path d="M96.6268 51.2781C96.792 50.9572 97.0365 50.69 97.3587 50.4773C97.6808 50.2646 98.0248 50.1582 98.3907 50.1582C98.8351 50.1582 99.1983 50.2555 99.4821 50.4509C99.765 50.6464 99.9065 50.8954 99.9065 51.1991C99.9065 51.39 99.8371 51.5554 99.6975 51.6936C99.5579 51.8318 99.3617 51.9018 99.1098 51.9018C99.1098 50.9554 98.7521 50.4827 98.0385 50.4827C97.7337 50.4827 97.4481 50.5891 97.1825 50.8018C96.917 51.0145 96.7317 51.29 96.6268 51.6281V54.8307C96.6268 55.5516 96.677 56.0497 96.7774 56.3279C96.8777 56.6061 97.0493 56.7442 97.2939 56.7442V56.796H95.1768V56.7442C95.299 56.7442 95.4031 56.7115 95.4907 56.647C95.5774 56.5815 95.6476 56.4761 95.6996 56.3279C95.7517 56.1806 95.7891 55.9852 95.811 55.7425C95.8329 55.4998 95.8438 55.1961 95.8438 54.8316V52.2545C95.8438 51.8899 95.8329 51.5863 95.811 51.3436C95.7891 51.1009 95.7526 50.9054 95.6996 50.7582C95.6476 50.6109 95.5774 50.5045 95.4907 50.4391C95.4031 50.3736 95.299 50.3418 95.1768 50.3418V50.29H95.9743C96.4096 50.29 96.6277 50.5073 96.6277 50.9409V51.2791L96.6268 51.2781Z" fill="#644E23" fill-opacity="0.933333"/>
<path d="M103.461 56.4225C103.618 56.6398 103.814 56.748 104.049 56.748V56.7998H103.226C102.79 56.7998 102.511 56.5916 102.39 56.1753L101.265 52.2573C101.161 51.9018 101.061 51.6 100.965 51.3528C100.869 51.1055 100.774 50.9083 100.678 50.7601C100.582 50.6128 100.482 50.5065 100.378 50.441C100.274 50.3756 100.159 50.3437 100.038 50.3437V50.2919H100.861C101.306 50.2919 101.584 50.5001 101.697 50.9164L102.821 54.8344C102.917 55.1726 103.008 55.4617 103.096 55.6998C103.183 55.9389 103.275 56.1316 103.371 56.2789L104.534 52.2564C104.9 50.981 104.865 50.3428 104.429 50.3428V50.291H105.893V50.3428C105.771 50.3428 105.658 50.3756 105.553 50.4401C105.449 50.5055 105.346 50.6119 105.246 50.7592C105.146 50.9064 105.05 51.1046 104.959 51.3519C104.867 51.5991 104.769 51.9009 104.665 52.2564L103.463 56.4225H103.461Z" fill="#644E23" fill-opacity="0.933333"/>
<path d="M110.869 52.4089C110.869 52.5734 110.819 52.7043 110.719 52.7997C110.618 52.8952 110.481 52.9434 110.307 52.9434H109.588C108.77 52.9434 108.123 53.1325 107.647 53.5097C107.173 53.887 106.935 54.4015 106.935 55.0524C106.935 55.1996 106.951 55.3433 106.981 55.4823C107.011 55.6214 107.048 55.7605 107.092 55.8987C107.284 56.1414 107.508 56.3287 107.766 56.4587C108.022 56.5886 108.312 56.6541 108.634 56.6541C108.87 56.6541 109.098 56.6168 109.321 56.5432C109.542 56.4696 109.75 56.365 109.941 56.2305C110.133 56.096 110.304 55.936 110.458 55.7487C110.61 55.5623 110.73 55.356 110.817 55.1305H110.948C110.835 55.3996 110.687 55.6451 110.503 55.866C110.321 56.0869 110.118 56.2759 109.896 56.4323C109.674 56.5887 109.432 56.7105 109.17 56.7968C108.909 56.8832 108.643 56.9268 108.373 56.9268C107.98 56.9268 107.61 56.8377 107.262 56.6596C106.913 56.4814 106.609 56.2405 106.348 55.9369C106.087 55.6332 105.879 55.2751 105.727 54.8633C105.575 54.4515 105.498 54.0106 105.498 53.5415C105.498 53.0725 105.574 52.6325 105.727 52.2198C105.879 51.808 106.087 51.4498 106.348 51.1462C106.609 50.8426 106.914 50.6017 107.262 50.4235C107.611 50.2453 107.981 50.1562 108.373 50.1562C108.712 50.1562 109.032 50.2172 109.333 50.3381C109.634 50.4599 109.9 50.6226 110.131 50.8262C110.362 51.0298 110.543 51.2689 110.673 51.5425C110.804 51.8162 110.869 52.1043 110.869 52.408V52.4089ZM109.955 52.3834C109.955 52.1062 109.911 51.8389 109.824 51.5825C109.738 51.3271 109.622 51.1035 109.479 50.9117C109.334 50.7208 109.166 50.569 108.976 50.4562C108.784 50.3435 108.583 50.2872 108.374 50.2872C108.104 50.2872 107.851 50.3735 107.616 50.5471C107.381 50.7208 107.173 50.9553 106.996 51.2498C106.817 51.5453 106.675 51.8898 106.571 52.2843C106.466 52.6798 106.414 53.0979 106.414 53.5406C106.414 53.9488 106.453 54.3215 106.532 54.6606C106.61 54.9996 106.724 55.2987 106.871 55.5587C106.828 55.3678 106.806 55.1987 106.806 55.0505C106.806 54.7124 106.871 54.4042 107.002 54.126C107.132 53.8488 107.319 53.6115 107.564 53.417C107.808 53.2215 108.1 53.0725 108.44 52.9679C108.78 52.8634 109.163 52.8116 109.59 52.8116C109.738 52.8116 109.836 52.7834 109.884 52.727C109.931 52.6707 109.956 52.5561 109.956 52.3825L109.955 52.3834Z" fill="#644E23" fill-opacity="0.933333"/>
<path d="M40.7083 9.7098C40.8306 9.7098 40.9347 9.67707 41.0223 9.61253C41.109 9.54708 41.1792 9.44163 41.2312 9.29346C41.2832 9.14619 41.3207 8.95075 41.3426 8.70803C41.3645 8.46532 41.3754 8.16169 41.3754 7.79717V0.77934C40.67 0.78843 40.1125 0.963876 39.7027 1.30659C39.293 1.6493 39.0576 2.09018 38.9973 2.62743H38.9453L39.0758 0.648438H44.5903L44.7208 2.62743H44.6688C44.6076 2.08927 44.3722 1.6493 43.9634 1.30659C43.5537 0.963876 42.9961 0.78843 42.2907 0.77934V7.79626C42.2907 8.51622 42.3409 9.01529 42.4413 9.29346C42.5416 9.57162 42.7132 9.7098 42.9578 9.7098V9.76161H40.7102V9.7098H40.7083Z" fill="#644E23" fill-opacity="0.933333"/>
<path d="M46.4336 4.24251C46.6079 3.90435 46.867 3.63254 47.211 3.42892C47.5551 3.22529 47.9101 3.12257 48.276 3.12257C48.4585 3.12257 48.6328 3.15348 48.7989 3.21347C48.964 3.27438 49.1128 3.36983 49.2433 3.49982C49.3738 3.62982 49.476 3.7989 49.5508 4.00798C49.6247 4.21615 49.6621 4.46796 49.6621 4.7634V7.79688C49.6621 8.51684 49.7123 9.01591 49.8127 9.29408C49.9131 9.57224 50.0846 9.71042 50.3292 9.71042V9.76223H48.2121V9.71042C48.3344 9.71042 48.4384 9.67769 48.526 9.61315C48.6127 9.5477 48.683 9.44225 48.735 9.29408C48.787 9.14681 48.8244 8.95136 48.8463 8.70865C48.8682 8.46593 48.8792 8.16231 48.8792 7.79779V4.92066C48.8792 4.45159 48.7897 4.08979 48.6109 3.83344C48.432 3.578 48.1866 3.44983 47.8726 3.44983C47.5852 3.44983 47.3023 3.55618 47.0231 3.7689C46.7438 3.98162 46.5485 4.25706 46.4354 4.59522V7.79779C46.4354 8.51775 46.4856 9.01682 46.586 9.29498C46.6863 9.57315 46.8579 9.71133 47.1025 9.71133V9.76314H44.9854V9.71133C45.1076 9.71133 45.2117 9.6786 45.2993 9.61406C45.386 9.54861 45.4562 9.44316 45.5082 9.29498C45.5603 9.14772 45.5977 8.95227 45.6196 8.70956C45.6415 8.46684 45.6524 8.16322 45.6524 7.7987V1.96445C45.6524 1.59992 45.6415 1.2963 45.6196 1.05358C45.5977 0.810868 45.5612 0.615423 45.5082 0.468158C45.4562 0.320893 45.386 0.214535 45.2993 0.149083C45.2117 0.0836321 45.1076 0.0518156 44.9854 0.0518156V0H45.7829C46.2182 0 46.4363 0.217262 46.4363 0.650876V4.24342L46.4336 4.24251Z" fill="#644E23" fill-opacity="0.933333"/>
<path d="M56.0861 5.37462C56.0861 5.53915 56.036 5.67006 55.9356 5.76551C55.8352 5.86096 55.6983 5.90823 55.524 5.90823H54.8049C53.9855 5.90823 53.3394 6.09731 52.864 6.47456C52.3894 6.85181 52.1522 7.36633 52.1522 8.01721C52.1522 8.16448 52.1677 8.30811 52.1978 8.44719C52.2279 8.58627 52.2653 8.72536 52.3091 8.86353C52.5008 9.10625 52.7252 9.29351 52.9826 9.4235C53.239 9.5535 53.5292 9.61895 53.8513 9.61895C54.0868 9.61895 54.3149 9.58259 54.5376 9.50804C54.7593 9.43441 54.9664 9.32987 55.1581 9.19533C55.3497 9.06079 55.5222 8.9008 55.6746 8.71354C55.827 8.52719 55.9465 8.32083 56.0341 8.09539H56.1646C56.0515 8.36447 55.9036 8.60991 55.7202 8.83081C55.5377 9.0517 55.3351 9.24079 55.1125 9.39714C54.8898 9.5535 54.6489 9.67531 54.387 9.76167C54.126 9.84803 53.8595 9.89166 53.5903 9.89166C53.1979 9.89166 52.8274 9.80258 52.4798 9.6244C52.1312 9.44623 51.8264 9.20533 51.5654 8.90171C51.3044 8.59809 51.0973 8.23993 50.9449 7.82813C50.7925 7.41633 50.7158 6.97544 50.7158 6.50638C50.7158 6.03731 50.7916 5.59733 50.9449 5.18463C51.0973 4.77283 51.3044 4.41467 51.5654 4.11104C51.8264 3.80742 52.1312 3.56653 52.4798 3.38835C52.8284 3.21018 53.1989 3.12109 53.5903 3.12109C53.9298 3.12109 54.2501 3.182 54.5512 3.3029C54.8515 3.42471 55.117 3.58743 55.3479 3.79106C55.5788 3.99469 55.7594 4.23377 55.8899 4.50739C56.0204 4.78101 56.0861 5.06918 56.0861 5.3728V5.37462ZM55.1718 5.34916C55.1718 5.0719 55.128 4.80465 55.0413 4.54829C54.9537 4.29285 54.8387 4.06923 54.6954 3.87742C54.5512 3.68652 54.3842 3.53471 54.1926 3.42199C54.001 3.30927 53.8002 3.25291 53.5912 3.25291C53.3211 3.25291 53.0684 3.34017 52.8329 3.51289C52.5975 3.68652 52.3903 3.92105 52.2124 4.21558C52.0335 4.51102 51.8921 4.85555 51.7881 5.25008C51.6831 5.64551 51.6311 6.06367 51.6311 6.50638C51.6311 6.91454 51.6703 7.28725 51.7488 7.62632C51.8273 7.96449 51.9405 8.26447 52.0883 8.52446C52.0445 8.33356 52.0226 8.16448 52.0226 8.0163C52.0226 7.67814 52.0883 7.36997 52.2188 7.0918C52.3493 6.81454 52.5363 6.57728 52.7809 6.38275C53.0246 6.1873 53.3166 6.03822 53.656 5.93368C53.9955 5.82914 54.3788 5.77732 54.8058 5.77732C54.9537 5.77732 55.0522 5.74914 55.0997 5.69278C55.1471 5.63642 55.1718 5.52188 55.1718 5.34825V5.34916Z" fill="#644E23" fill-opacity="0.933333"/>
<path d="M14.0117 69.9648V65.5195H15.6141C16.6353 65.5195 17.0742 65.9504 17.0742 66.624C17.0742 67.0149 16.8379 67.3922 16.2767 67.5467C16.8242 67.7085 17.1965 68.0994 17.1965 68.6648C17.1965 69.2303 16.8853 69.9648 15.6278 69.9648H14.0117ZM14.499 67.3713H15.5129C16.2228 67.3713 16.5951 67.1485 16.5951 66.6777C16.5951 66.1659 16.2575 65.9431 15.5603 65.9431H14.499V67.3713ZM14.499 69.5402H15.5813C16.4674 69.5402 16.7101 69.0821 16.7101 68.6376C16.7101 68.193 16.4062 67.7549 15.5338 67.7549H14.499V69.5402Z" fill="#644E23" fill-opacity="0.933333"/>
<path d="M19.1499 70.0986C19.3388 70.355 19.8663 70.4223 20.0899 69.9705L20.2925 69.5323L18.9601 66.5488H19.4401L20.5352 69.1351L21.7589 66.5488H22.2389L20.4677 70.0914C20.0826 70.8659 19.2841 70.805 18.8652 70.3677L19.149 70.0986H19.1499Z" fill="#644E23" fill-opacity="0.933333"/>
<path d="M27.1885 69.9448V65.5195H30.1369V65.9913H27.6758V67.5203H29.9069V67.9449H27.6758V69.4675H30.1232V69.9457H27.1885V69.9448Z" fill="#644E23" fill-opacity="0.933333"/>
<path d="M32.0459 69.9648V65.5195H32.5323V69.9648H32.0459Z" fill="#644E23" fill-opacity="0.933333"/>
<path d="M34.4385 68.2697C34.4385 67.138 35.2771 66.4844 36.2234 66.4844C37.1697 66.4844 37.9207 67.0771 38.002 68.1816V68.3906L34.8984 68.397C34.9522 69.1242 35.6084 69.6233 36.2234 69.6297C36.6833 69.6297 37.1633 69.4079 37.407 68.9697L37.7793 69.1651C37.4754 69.7178 36.8804 70.0342 36.2243 70.0342C35.278 70.0342 34.4394 69.2933 34.4394 68.2697H34.4385ZM37.542 68.0879C37.4681 67.3334 36.8522 66.8825 36.2234 66.8825C35.5947 66.8825 34.9924 67.3334 34.9322 68.0879H37.542Z" fill="#644E23" fill-opacity="0.933333"/>
<path d="M40.816 69.9641L39.335 66.5488H39.8213L41.0387 69.3978L42.2487 66.5488H42.7287L41.255 69.9641H40.8151H40.816Z" fill="#644E23" fill-opacity="0.933333"/>
<path d="M44.2304 68.2761C44.2304 67.158 44.9805 66.4781 45.9615 66.4844C46.6313 66.4844 47.2327 66.8617 47.469 67.4207V66.5517H47.9554V69.967H47.4754V69.0779C47.2454 69.637 46.6368 70.0342 45.9807 70.0342C44.9869 70.0406 44.2295 69.2661 44.2295 68.2761H44.2304ZM47.4553 68.2761C47.4553 67.4071 46.7855 66.8953 46.0756 66.8889C45.3592 66.8889 44.7095 67.3535 44.7095 68.2761C44.7095 69.0706 45.3656 69.6233 46.0756 69.6233C46.7919 69.617 47.4553 69.0643 47.4553 68.2761Z" fill="#644E23" fill-opacity="0.933333"/>
<path d="M52.3352 69.8566C51.5714 70.2002 50.4489 69.8702 50.4489 68.7321V66.954H49.8604V66.5295C50.5365 66.5295 50.4489 66.125 50.4489 65.5195H50.9289L50.9353 66.5295H52.0714V66.954H50.9289V68.6921C50.9289 69.4402 51.6453 69.7157 52.2275 69.4466L52.3361 69.8575L52.3352 69.8566Z" fill="#644E23" fill-opacity="0.933333"/>
<path d="M53.8496 68.2697C53.8496 67.138 54.6882 66.4844 55.6345 66.4844C56.5809 66.4844 57.3319 67.0771 57.4131 68.1816V68.3906L54.3095 68.397C54.3634 69.1242 55.0195 69.6233 55.6345 69.6297C56.0945 69.6297 56.5745 69.4079 56.8181 68.9697L57.1904 69.1651C56.8866 69.7178 56.2916 70.0342 55.6355 70.0342C54.6892 70.0342 53.8505 69.2933 53.8505 68.2697H53.8496ZM56.9532 68.0879C56.8793 67.3334 56.2633 66.8825 55.6345 66.8825C55.0058 66.8825 54.4035 67.3334 54.3433 68.0879H56.9532Z" fill="#644E23" fill-opacity="0.933333"/>
<path d="M62.3633 69.9648V65.5195H62.8497V67.5467H65.0808V65.5195H65.5672V69.9648H65.0808V67.9712H62.8497V69.9648H62.3633Z" fill="#644E23" fill-opacity="0.933333"/>
<path d="M67.4756 68.2761C67.4756 67.1852 68.2805 66.4844 69.3144 66.4844C70.3483 66.4844 71.1741 67.1852 71.1741 68.2761C71.1677 69.2797 70.3766 70.0342 69.3144 70.0342C68.2522 70.0342 67.482 69.2797 67.4756 68.2761ZM70.6941 68.2761C70.6941 67.4343 70.0718 66.8889 69.3144 66.8889C68.557 66.8889 67.9556 67.4007 67.9556 68.2761C67.9556 69.0506 68.598 69.6233 69.308 69.6233C70.0179 69.6233 70.6941 69.0915 70.6941 68.2761Z" fill="#644E23" fill-opacity="0.933333"/>
<path d="M73.083 69.9648V65.5195H73.5694V69.9648H73.083Z" fill="#644E23" fill-opacity="0.933333"/>
<path d="M75.4755 68.2729C75.4755 67.1548 76.2256 66.4748 77.2066 66.4812C77.8764 66.4812 78.4778 66.8584 78.7141 67.4175V65.5176H79.2005V69.9628H78.7205V69.0738C78.4906 69.6328 77.8819 70.0301 77.2258 70.0301C76.232 70.0364 75.4746 69.2619 75.4746 68.272L75.4755 68.2729ZM78.7004 68.2729C78.7004 67.3902 78.0306 66.8921 77.3207 66.8857C76.6043 66.8857 75.9546 67.3502 75.9546 68.2729C75.9546 69.0674 76.6107 69.6201 77.3207 69.6201C78.037 69.6137 78.7004 69.061 78.7004 68.2729Z" fill="#644E23" fill-opacity="0.933333"/>
<path d="M81.1094 65.7564C81.1094 65.6018 81.2581 65.5 81.4205 65.5C81.583 65.5 81.7244 65.6009 81.7244 65.7564C81.7244 65.9118 81.5821 66.0127 81.4205 66.0127C81.259 66.0127 81.1094 65.9045 81.1094 65.7564ZM81.1778 69.9661V66.5509H81.6578V69.9661H81.1778Z" fill="#644E23" fill-opacity="0.933333"/>
<path d="M83.6308 69.967V66.5517H84.1172V67.4207C84.3535 66.8617 84.9558 66.4844 85.6247 66.4844C86.6048 66.4781 87.3558 67.158 87.3558 68.2761V69.967H86.8694L86.8758 68.2761C86.8822 67.3535 86.227 66.8889 85.5097 66.8889C84.7998 66.8953 84.13 67.3944 84.13 68.2761V69.967H83.6299H83.6308Z" fill="#644E23" fill-opacity="0.933333"/>
<path d="M89.0742 70.5387C89.0541 70.0333 89.4465 69.6897 89.8316 69.5551C89.6427 69.4679 89.5478 69.367 89.5542 69.1642C89.5605 68.9624 89.7029 68.767 89.9393 68.6324C89.5605 68.4506 89.3507 68.0934 89.3507 67.6898C89.3507 66.9425 89.8845 66.4844 90.7843 66.4844C91.0881 66.4844 91.2843 66.5244 91.4203 66.5453H92.4341V66.9225H91.8328C92.0564 67.0643 92.1841 67.3943 92.1841 67.6634C92.1841 68.3843 91.643 68.8424 90.7642 68.8424C90.568 68.8424 90.3992 68.8152 90.3043 68.8024C90.0679 68.9233 89.9393 69.0788 89.9393 69.2197C89.9456 69.4551 90.2094 69.4824 90.4667 69.4824H91.1493C91.9806 69.4824 92.5628 69.8124 92.5491 70.506C92.529 71.2132 91.9067 71.5569 90.7843 71.5569C89.723 71.5569 89.0942 71.186 89.0732 70.5396L89.0742 70.5387ZM92.0965 70.5251C92.1102 70.0533 91.7789 69.8178 91.0617 69.8178H90.4731C89.973 69.8178 89.5058 70.0742 89.5268 70.5387C89.5469 70.9769 89.9666 71.185 90.7706 71.185C91.6229 71.185 92.0892 70.9496 92.0956 70.5251H92.0965ZM91.7452 67.6625C91.7452 67.1843 91.4002 66.888 90.7715 66.888C90.1427 66.888 89.7978 67.178 89.7978 67.6825C89.7978 68.1607 90.1227 68.4434 90.7715 68.4434C91.4203 68.4434 91.7452 68.1607 91.7452 67.6625Z" fill="#644E23" fill-opacity="0.933333"/>
<path d="M94.2147 68.8615H94.6673C94.7075 69.4542 95.1273 69.636 95.6136 69.6633C96.0261 69.6833 96.445 69.4542 96.4587 69.0842C96.4723 68.6797 96.2013 68.5388 95.5662 68.4379C94.7549 68.3097 94.2412 68.1143 94.2275 67.4743C94.2138 66.8753 94.7349 66.4844 95.4987 66.4844C96.33 66.4844 96.8647 66.8753 96.925 67.6161H96.4787C96.4313 67.158 96.08 66.8616 95.5114 66.8553C95.0314 66.8489 94.6929 67.1243 94.6929 67.488C94.6993 67.8589 94.9703 68.0134 95.6054 68.1207C96.5253 68.2825 96.9304 68.4706 96.9241 69.1042C96.9104 69.7033 96.3692 70.0542 95.6127 70.0342C94.7942 70.0142 94.2266 69.5833 94.2129 68.8624L94.2147 68.8615Z" fill="#644E23" fill-opacity="0.933333"/>
</g>
<defs>
<clipPath id="clip0_481_183">
<rect width="110.95" height="71.5546" fill="white"/>
</clipPath>
</defs>
</svg>
